<svg xmlns="http://www.w3.org/2000/svg" version="1.1" xmlns:xlink="http://www.w3.org/1999/xlink" xmlns:svgjs="http://svgjs.com/svgjs" width="1000" height="1000"><rect width="1000" height="1000" rx="150" ry="150" fill="#f5f5f5"></rect><g transform="matrix(1.7578125,0,0,1.7578125,49.86526730656624,47.80231657624245)"><svg xmlns="http://www.w3.org/2000/svg" version="1.1" xmlns:xlink="http://www.w3.org/1999/xlink" xmlns:svgjs="http://svgjs.com/svgjs" width="512" height="512"><svg id="Layer_1" data-name="Layer 1" xmlns="http://www.w3.org/2000/svg" version="1.1" viewBox="0 0 512 512">
  <defs>
    <style>
      .cls-1 {
        fill: #000;
        stroke-width: 3.1px;
      }

      .cls-1, .cls-2 {
        stroke: #000;
        stroke-miterlimit: 10;
      }

      .cls-2 {
        fill: none;
        stroke-width: 12.4px;
      }
    </style>
  </defs>
  <path class="cls-2" d="M500.9,420.7l-.9-1.1h-1.3l-1.1-1-.6.7h-.8c0,.1-.4,0-.4,0h-.6c0-.1-.5,0-.5,0l-1.4.7h-.8c0,.1-1.1.3-1.1.3h-.3c0-.1-.4-.5-.4-.5h-.3s-.6.4-.6.4h-.6l-.3-.2-.9-.5-.3-.8,1-1.2v-.4c0,0-.7-1.2-.7-1.2l1.1-1.8.3-1.1v-2.6l-.2-3.3v-2.9c-.1,0-.8-2.6-.8-2.6l-1-4.4v-2.3s.4-3.8.4-3.8c-.3-.3-.6-.7-.7-1.1-.2,0-.4-.2-.6-.3h-.4c0,.1-1,.3-1,.3h-2.4l-.5-.2-.7-.9-.3-.4-.3-.5-.3-.8-.3-.6-.4-.3h-.9c0-.1-.5-.6-.5-.6l-.3-.3-.5-.3-.5-.2-.6-.2-.6-.3h-.8l-.7-.2-1-.5-1.1-.4-.7-.3h-1.4c0-.1-.6-.4-.6-.4l-.7-.4-.9-.2-1.2-.2-1.1-.4-.6-.8-.7-1.1-.5-.4-.4-.3-.5-.3-.8-.8-.5-.8-.9-1.4-.8-.3-1-.7-.6-1.1-.6-1.2-.8-1.6-.5-1-.4-1.2-.3-.4h-.5l-.5-.3v-.5c.6-.8.5-.9.5-.9-.4-.6-.8-.6-.8-.6v-.8s-.3-.2-.3-.2h-1.1c0,0-.3-.5-.3-.5v-1.1c0,0,0-1.1,0-1.1-1.8-1.7-1.5-1.7-1.5-1.7v-.6c0,0,.2-.6.2-.6v-.5s-.2-.5-.2-.5v-1.1h-.9c-.5-.3-.7-1-.7-1l-1.4-1.4-1.8-1.7-1.9-2.5-2-2.6-2.2-2.7-1.3-1.8,2.3-2.8,3.5-4.3,4.5-5.4,4.2-5.1,4-4.7,4.1-5.2v-.6s.9-1.1.9-1.1v-.7s-.3-1.3-.3-1.3v-.7c0,0,1.1-1.1,1.1-1.1v-3.6c-.1,0-.8-.7-.8-.7v-1.8c0,0-.3-.1-.3-.1l-.5-.6-.2-3.2-1.8-1.9-3-.5h-1.1c0-.1-1.2-.2-1.2-.2l-1.3-.2h-.8c0-.1-1.3-.3-1.3-.3h-.6c0-.1-1.1-.3-1.1-.3l-.7-.2h-.9c0,0-1.2-.3-1.2-.3l-1-.2-1.1-.2h-1.1c0-.1-1.6-.3-1.6-.3l-1.1-.2h-1.1c0-.1-1.2-.4-1.2-.4v-.9c-.1,0-.2-1-.2-1l-.2-.8v-1c-.1,0-.3-1-.3-1l-.3-1.2v-.8s0-1.7,0-1.7v-2.2s0-2.2,0-2.2v-1.7c.1,0,.2-.8.2-.8v-.4c-.1,0-.2-.6-.2-.6v-.3c0,0,.3-.2.3-.2l.2-.2.2-.3v-.4c.3,0,.4-.7.4-.7v-.5c.1,0,.3-.5.3-.5v-.4c.1,0,.2-.6.2-.6l.2-.4v-.5l-.2-.4-.2-.6-.2-.4v-.3c0,0-.2-.5-.2-.5l-.2-.5v-.6c-.1,0-.1-.7-.1-.7h-.1c0-.1-.1-1.2-.1-1.2v-1.2c-.1,0-.3-.7-.3-.7v-1.7c0,0-.5-.7-.5-.7l-.3-.8-.3-.6-.3-.7-.4-.9-.5-1.2-.3-1.4-.3-1.3-.2-1.2-.3-1-.4-1.5-.2-.9-.3-1.3-.2-.7-.2-.8-.2-.7-.3-.9-.4-1.1-.4-1.2.4-1,.4-.9.4-.9.8-1.1.6-.7,1-1.1.9-.9.8-.9.7-.8.7-.5.3-.3v-2.2c.1,0,.3-.2.3-.2l.3-.2h.3s.2,0,.2,0h.5c0,0,.3,0,.3,0l.2-.2h0c0-.1-.3-.4-.3-.4l-.3-.2h-.2c0,0-.3-.1-.3-.1h-5.1l-.3-.2-.4-.2-.6-.3-.6-.3-.3-.2-.5-.2-.4-.3-.2-.5-.2-.5v-.8c-.1,0-.1-.8-.1-.8v-1c0,0,0-.7,0-.7v-.4c.1,0,.3-.6.3-.6l.2-.6.2-.5v-.8c-.1,0-.3-.9-.3-.9l-.2-1.1-.2-1.3-.3-1-.2-1.5-.3-1.5v-1.1s.5-1.2.5-1.2c.1-.2.3-1.2.3-1.2l.4-.6.8-.7,1-.9.8-.8v-.9s1.9,0,1.9,0h1.2s2.9.2,2.9.2v-1.1s-.6-.4-.6-.4l-.6-.5-.2-.4v-.5c-.1,0-.4-.6-.4-.6l-.3-.5v-.8s0-.4,0-.4v-.2c-.1,0-.5-.3-.5-.3l-.5-.4-.8-.4c-.6-.5,0-.5,0-.5l1-.4,1.2-.3h1.1c0-.1.4-.5.4-.5l.2-.5v-.5c.1,0,.4-.6.4-.6l.4-.2.8.2.4-.2.3-.8.2-.6v-.8s.2-.7.2-.7l.5-.6.3-.8.4-.7.3-.5v-1.3c0,0,.2-1.3.2-1.3v-1.1c.1,0,.2-.7.2-.7v-.8c.1,0,.6-.5.6-.5l.2-.5v-.6c0,0-.2-.5-.2-.5v-.7c.1,0,1-1,1-1v-.5c-.1,0-.6-.8-.6-.8l-.4-.6-.3-.7.2-.6v-.4c.1,0,0-.4,0-.4l-.7-.9v-.5c.1,0,1.1-.4,1.1-.4h1.2l.3-.2v-1.9c0,0,.3-.7.3-.7l.8-2,.7-1.4.7-1.2s0,.5,0-1.1h0c0-1.6-.1-1.6-.1-1.6-.2-.9-1.2-1.9-1.2-1.9v-.9l.3-.6.3-1v-.4c0,0,0-.9,0-.9l.2-.8v-1.1c-.3-2-1-2.9-1-2.9h-2l-.2-.2v-.4c-.1,0,.3-.7.3-.7l.4-.6.3-.6.4-1.1.3-.5.2-.8.3-.7v-.8c.1,0,.1-.9.1-.9l-.2-.9-.5-.9-.3-.7-.3-.8-.4-.5v-.6c0,0,0-.5,0-.5l-.2-.6-.2-1,.3-.4v-.7c0,0,0-.6,0-.6l.3-.5.3-.5-.4-.3v-.9c.1,0,.6-.9.6-.9l.2-.9c0-.8-1-2.3-1-2.3h-2.3c0,.1-2.6.2-2.6.2h-4.5c0,0-3.9,0-3.9,0h-4.1s-3.1,0-3.1,0l-1.7-2.7-1-1.7-.6-1.2-.8-.7-.8-.8-.5-.8-.9-1.7-.5-1.5c-.5-1.2-1.5-1.7-1.5-1.7l-1-.2-2.1-.2c-1.8-1.2-1.9-2-1.9-2l-.7-.2-1,.2-.9-.4-.5-.3h-.5s-.6.1-.6.1l-.5.3h-.5c0,0-.7-.4-.7-.4l-.6-.2-.4-.5-.3-.7-.3-.6h-.7c0,0-.4-.5-.4-.5v-1.2c-.1,0-.6-.5-.6-.5l-.4-.6-.8-.6-.6-.6-.2-.6v-.6s0,0,0,0c-.2-.3-.3-.5-.3-.8,0,0,0-.2,0-.2,0,0-.1,0-.2,0h0c-.1,0-.3,0-.5,0-1.3,0-2.4-.9-2.9-2,0-.1-.1-.2-.2-.4-.6-.4-1.2-1-1.6-1.7-.2-.4-.3-.8-.3-1.1l-.3-.2-.6-.6-1.2-.9c-1.3-.9-2.7-1.3-2.7-1.3h-.7c0,0-.9-.3-.9-.3l-1.1-.7-.7-.4h-.5s-.1,1.5-.1,1.5l-.4.2-.4-.2h-.4s-.5.6-.5.6h-.7s-.5-.4-.5-.4l-1.1-.7-.9-.6-.8-.2h-.9c-.3.5-1.6,1.7-1.6,1.7h-1.5c0,0-1.3,0-1.3,0l-.9-.2-.9-.4-1-.2-.8-.5v-.7c-.1,0-.3-.8-.3-.8l-.2-1c0-.7-.8-.9-.8-.9h-1.3c0,0-.6,0-.6,0l-1.1-.3-1-.4-.8-.5-1.1-.6-.9-.6-.7-.3h-.5s-.6.4-.6.4l-.6-.2-.3-.6-.5-.5h-.2s-.9-.1-.9-.1l-.4-.3-.5-.2h-.5s-.6,0-.6,0l-.6-.2-.8-.3h-.3c0,0-.3-.2-.3-.2h-.5c0,0-.5.5-.5.5l-.7.2h-.6c0-.1-.5-.4-.5-.4l-.7-.3-.7-.4-.6-.3-.6-.5v-.4c-.1,0-.2-.6-.2-.6v-1.3c0,0,0-.6,0-.6l-.2-1.1-.2-.5c-.3-.7-1.3-1.2-1.3-1.2v-.4c-.1,0-.3-1.3-.3-1.3l-.6-1c-.5-.7-1.3-1.2-1.3-1.2h-1c-.6,1.2-.8,1.5-.8,1.5-.3.8-1.6,1.3-1.6,1.3h-1.6l-.3-.2-.3-.5-.3-.2h-3c0,0-.6-.3-.6-.3-1.2-1.3-2.5-1.9-2.5-1.9l-.8.6-.6.2h-1s-.5.5-.5.5l-.4.4h-.3c0-.5-.4-.8-.4-.8l-.5-.3h-1.2c0-.2-1.4,0-1.4,0h-.8c-1.9,1.5-2.5,2.6-2.5,2.6v.6c0,0,0,.4,0,.4l.2.3v1.6l-.3.4-.3.2h-.9c0,.1-.9.1-.9.1h-.4c0,.1-.4,0-.4,0l-.3-.2-.4-.2h-.6c0,0-2,0-2,0h-3.6c0,0-.6-.1-.6-.1l-.6-.3-.7-.4-.5-.4h-.8s-.7,0-.7,0h-.7s-.7.3-.7.3l-.6.3h-2.4c0,0-1.7,0-1.7,0l-.7.3-.5.3-.3-.2-.5-.2-.4.2-.5.8-.7.5-.7.2-.7.3c-.9.1-1,.9-1,.9h-.9s-.7.6-.7.6l-.6.7h-.4s-.5,0-.5,0l-.4.3-1.1.2c-1.9,1.5-3.4,4-3.4,4h-.8c0,.1-.5.7-.5.7l-.6.6-.6.2h-.4s-.3.3-.3.3l-.4.6c-.5.6-1.2,2.7-1.2,2.7v1.1c.1,0,.5.6.4,1.6s-1.2,2.5-1.2,2.5l-.7.2-.3.8-1.2.9h-.8s-.4-.9-1.5-.7c-1.1.2-1.9,1.2-1.9,1.2h-.4s-.4.3-.4.3l-1.1,1.1-.8.7-.7.3h-2.4c0,0-.8.9-.8.9h-1s-.6-.2-.6-.2h-.9s-1.4-.1-1.4-.1l-.4-.2h-1s-.8,0-.8,0h-1.3c0,0-1,0-1,0v1c0,0,.2.9.2,1,0,0,.2.7.2.7l.2.5.2,1,.3,1.3.3,2.4.6,1.2.3,1.1v1.4s1,1.1,1,1.1v2.5c-.1,0-.8,1.1-.8,1.1l-1.3,1.2-1.1.3c-1.9.3-2.2-.1-2.2-.1l-.6-.2-1.5-.2h-1.6s-2.5,0-2.5,0l-1.1.3-.8.2h-1.2c-1.2-.8-.6-1.5-.6-1.5h.9c0-.1,1.1-.2,1.1-.2h.8s-.2-.2-.2-.2l-.3-.2v-.2c0,0,.9,0,.9,0h.4s1,0,1,0h1.6c0-.1,1.1-.3,1.1-.3l2.9-.3h1.2c0-.1,1-.3,1-.3l1.1-.3.6-.5v-.5c.1,0-.7,0-.7,0l-2.9,1-3.8.4-3,.6-2.3.3-2.6.2h-2.4c0,0-5.5,1.7-5.5,1.7l-5.6,1.6-5.8,1.6-1.6.3h-1.3s-.7,0-.7,0l-1.5.5-1.4.5-4.6,1.3c-4.6,1.3-5,1.3-5,1.3h-1.2c0,.1-2.1.1-2.1.1h-2c0-.1-1.1-.2-1.1-.2l-.9-.2h-.4c0,0-.9.4-2.8-.9-1.9-1.3-4-1.9-4-1.9h-.4c0-.1-.8,0-.9-.1s-.7,0-.7,0h-.8l-.9-.2-1.1-.3-1.6-.3-.8-.3-.8-.2-.8-.3-.8-.3-1-.4-1.2-.6-1.3-.5-1.4-.7-.6-.3-1.1-.6-.7-.4-1.2-.8-1-.6-.8-.7-.8-.7-.7-.7-1.1-.5-1-.6-.9-.4-1-.7-.6-.7-.4-.6-.6-.6-.9-.8-.6-.7-.6-.6-.5-.8-.5-1-.4-1.1-.3-.9c-.3-1.5-.9-2.4-.9-2.4l-.5-.7c-.5-.8-2.2-1-2.2-1h-.7c0-.1-1-.1-1-.1l-.9-.6-.9-.8c-.5-.7-1.5-.8-1.5-.8l-1.3.8h-2.3c0-.1-.8-.1-.8-.1l-.8-.3-.9-.2-1-.2h-3.8c0-.1-1.1-.3-1.1-.3l-.9-.3-1.3-.5-.8-.3-1.1-.6-1.1-.6-.8-.4-.8-.6-2-1.4-1-1-.7-1.1s0-.2-.4-1.3-1.3-3.4-1.3-3.4l-.4-1.3v-3.6c0,0-.3-1.1-.3-1.1v-1.1c-.1,0-.1-3.7-.1-3.7,0,0,0-.5-.2-1.2s-.8-3.3-.8-3.3l-.2-3.8s-1.5,0-2.2,0c-.7,0-.8.4-.8.4l-1,.9h-2.1c0,0-.5-.6-.5-.6l-.3-.9s-.2-1-.9-1.5c-.7-.4-1.2-.7-1.2-.7l-.3-1.3-.9-.2-.3-.6v-.8l-.3-.2-.8.2-.6.2-.6.2-1-.2-.5-.8v-.6c0,0-.3-.3-.3-.3l-.5-.3-.4-.4v-.8c0,0,0-.7,0-.7l-.2-.6-.5-.3-.4-.2h-1c0-.1-.8-.3-.8-.3-.5.1-1-1.1-1-1.1-.5-.1-1.6-1.9-1.6-1.9v-.8c-.1,0-.1-1.2-.1-1.2h1.1c0,0,.1-.1.1-.1l.2-.5.6-.4.8-.2,1.4-.2h1.6c0-.1,1.6-1.1,1.6-1.1l.4-.8v-1.7c0,0-1.2-1.9-1.2-1.9l-1.1-.2-.8-1.3c-.9-.9-1.7-1.8-2-2.4s1.4-2.4,2-2.9.5-.3.5-.3h1.5c0-.1,1.7-1.2,1.7-1.2v-.5c.1,0-7.1-8.7-7.1-8.7-.3,0-.6,0-.8,0-.6-.2-1-.5-1.3-1-.2-.3-.4-.5-.6-.8l-3.5,2.2h-1.6c0,0-1.6,1.8-1.6,1.8h-1.1c0,.1-.9,1.4-.9,1.4h-.7c0,0-.8.4-.8.4l-.4.7-.5.6-.9.2-1.3.2h-.8c0,0-.6.6-.6.6l-.9,1.2-.5.8-.4.6-.6.8-.6.7-1.2.7-.5.2-1.6.8-1.3.9-.8,1.2-1.2,1.5-1.6,1.3-1.6-.7-.7.2-.9,1.7-1.5,1-.2,1.2-1.3.7-.7.5-.3,1.1-.7.9s-1.2,1.6-1.9,1.6c-.7,0-1,0-1,0l-.7-.3-.7-.2-.6.2h-1l-.7-.6h-1.4c0,0-3.5,2.2-3.5,2.2h-1.7l-1.3-1h-.6c0,0-.7,0-.7,0h-.8s-.5-.4-.5-.4h-.7s-.8.5-.8.5h-.7s.2,0-1.7-1.5h-2c0-.1-.9-.9-.9-.9h-1.5l-.9-.7h-3.4c0-.1-.8-.9-.8-.9v-1c-.1,0-.1-.7-.1-.7l-1.2-.7-.2-.8-.9-1.4-1-1.3-1.6-.3-1.8-.4-1.3-.9-.3-2.8-.8-1-.6-1.3-1.4-.5-1.3-1.3v-1.7c-.1,0-.9-.9-.9-.9l-.8-1.5v-1.5h-1.9l-.5-1.8h-1.2l-.5-1.7h-2.1l-1.1-2.3-.7.8-.7.6-.3.3-.5.4-.5.4-.3.3v.2c0,0,0,.7,0,.7v1.2c0,0-.1.5-.1.5l-.2.4-.4.5-.3.3-.3.4v.4c0,0,.3.6.3.6l.2.6v.5c-.1,0-.5.4-.5.4l-.3.3-.2.6.2.5.2.5-.2.4-.4.3-.6.2-.4.2h-.6c0,.1-.7.4-.7.4h-.2s-.2,0-.2,0h-.6c0-.1-.2-.2-.2-.2h-.3c0-.1-.2-.3-.2-.3l-.3-.3v-.2c-.1,0-.3,0-.3,0h-.2c0,0-.3.2-.3.2l-.4.2-.3.3h-.4c0,.1-.4.1-.4.1h-.3c0,0-.3-.2-.3-.2l-.2-.2h-.2c0-.1-.4-.3-.4-.3h-.2c0,0-.3-.1-.3-.1h-.1c0,0-.4.4-.4.4l-.2.6v.5c-.1,0,0,.3,0,.3l.2.3.6.8.2.4.2.4v.2c.1,0,0,.3,0,.3l-.3.2s-.1.2-.1.2c0,0,0,.2,0,.2l.2.3.2.2v1.3l.2.4.3.3h.7c0,0,.6.2.6.2l.3.2.2.4.5.9.2.4.2.9-.3.3-.3.4v.6c0,0,0,.4,0,.4l.2.4.2.4v.2c-.1,0-.4.3-.4.3l-.3.2v.2h-.3v.4l.2.2.3.2v.2c0,0,.2.3.2.3v.2c-.1,0-.1.5-.1.5v.3c.1,0,.3.2.3.2l.2.2.2.4v.6l.2.6.6.4.5.2.4.3.2.3v.5s0,.6,0,.6v.4s-.4,0-.4,0v.3s0,.3,0,.3l.2.3v.2s0,.3,0,.3h-.1c0,.1-.3.4-.3.4l-.3.3v.7s.1.3.1.3l.2.2v.3c0,0,0,.4,0,.4v.4c-.1,0-.1.5-.1.5l.2.2h.4s.2,0,.2,0l.4.2v.2s0,.7,0,.7v.4c-.1,0-.3.3-.3.3v.3c.1,0,0,.3,0,.3v.9s0,.2,0,.2v.5s0,.2,0,.2l-.2.3-.3.2v.5c0,0,.1.3.1.3l.2.4.2.2v.5s-.1.5-.1.5l-.2.6.2.3.3.2h.3c0,0,.6-.1.6-.1h.4c0,.1.3.2.3.2h.3s.5-.2.5-.2h.3c0-.1.5-.2.5-.2l.5.3.4.4.3.3s.1.6.2.7c0,0-.2.4-.2.4l-.3.4-.4.4-.4.2-.5.3-.5.2-.3.2v.7s.2.3.2.3v.4s0,.4,0,.4v.5s-.1.3-.1.3l-.2.6-.2.4v.3c0,0-.5.2-.5.2h-.2v.4c0,0-.1.5-.1.5l-.4.3h-.3c0,.1-.1.3-.1.3l-.2.6v.3s-.2.7-.2.7l-.3.5-.3.3v.6c-.1,0-.3.5-.3.5l-.4.8-.6,1.3c-.3.5-.3,1-.3,1,.3.8,1.1.6,1.1.6h.6c0,0,1.5,0,1.5,0,1.5.9,1.6,1.9,1.6,1.9l.3.4.5.6.4.2h.4s.5-.1.5-.1h.5c0-.1.9,0,.9,0l.4.2.3.3.3.4.2.2.2.4v.4c.1,0,.2.5.2.5v.3c-.1,0-.3.3-.3.3l-.2.3-.2.2-.3.3-.2.3v.3l.3.4.6.6.3.2v.6s0,.2,0,.2l-.3.2v.5s.2.3.2.3v.2c.1,0,.2.4.2.4l-.2.3-.2.2-.3.2-.2.3v1.2c0,0,.2.5.2.5v.4c.1,0,.4.3.4.3h.7c0,.1.2.3.2.3v.3c.1,0,.3.4.3.4v.4c.1,0,.6.2.6.2h.5c0,0,.5.3.5.3h.1c0,.1,0,.6,0,.6v.4s0,.2,0,.2l.2.2.3.2.6.2.5.2.3.3v.4c.1,0,.2.2.2.2l-.3.5-.3.3-.3.3-.3.3v.3c0,0,0,.5,0,.5l.2.4v.3c0,0,.1.5.1.5v.8s-.3.4-.3.4l-.2.3v.3s.3.4.3.4h.2c0,.1,0,.4,0,.4v.4s.2.2.2.2l.3.3.3.4v.2s.4,0,.4,0l.2-.2h.5c0,.1.5.5.5.5l.5.2.2.3v.5c.1,0,0,.3,0,.3l-.2.3v.4s0,.6,0,.6l.4.5v.6c.1,0,.1.6.1.6l-.2.5-.3.6v.2c-.1,0-.5.1-.5.1l-.3.3-.3.4-.3.5-.2.4v.5c.1,0,.2.2.2.2h.9c0,0,1.9,0,1.9,0l.2.3v.7c0,0,.7.2.7.2h.6s.6.2.6.2l.5.4.2.6v.6c.1,0,.2.7.2.7v1.3c0,0-.3.3-.3.3h-.5c0,0-.1.2-.1.2v.7c.1,0,0,.4,0,.4l-.3.3c-.2.6-.1,1.1-.1,1.1.7.8,1.4,1.1,1.4,1.1.6,1.1.9,2.2.9,2.2l.3.3h.6c0,0,.6,0,.6,0l.5-.2,1-.4h.6c0,0,.5.5.5.5l.5.7.3.7v1.4c0,0,0,.9,0,.9v1c.1,0,.4.6.4.6h.4c0,.1.2,1,.2,1v1.5c0,0,.2.9.2.9l.7.9.3.4v.6c.1,0,0,.8,0,.8l-.2.9-.3.4v.5s.3.3.3.3h.5c0,.1.9,0,.9,0l.9-.2h1.1c0-.1.8,0,.8,0l.6.2.6.3.8.4.6.4.4.6.7.6.4.6.4.8.3.6.3.5.2.4.2.4h.3c0,0,.3.1.3.1h.2c0,0,.5-.3.5-.3h.3c0,0,.5.3.5.3h.5c0,0,.3-.2.3-.2l.3-.4.2-.3h.6c0,0,.6.2.6.2h.4l.6-.2.5-.2.9-.3h.7c0,0,.8-.1.8-.1h.8s.4.5.4.5v.4c0,0,.6.4.6.4v.2c0,0,.7,0,.7,0h.6c0,0,.4-.2.4-.2,0,0,.5-.3.6-.4,0,0,.8-.3.8-.3h.7c0,0,.4.5.4.5l.4.4v.5s-.4.6-.4.6l-1.6,1.5h-.4s-.9,0-.9,0l-.5.3-.6.3h-2.9c0,0-.4.6-.4.6l-.3.4-.3.3v.5c0,0,0,.4,0,.4l.3.4v.4c.1,0,.2.5.2.5l-.2.2h-1.1c0,.1.1.5.1.5l.2.3.2.3v.8s0,.7,0,.7v.7c0,0,.1.5.1.5l.3.5.4.5.3.6.5.5.4.7,1.1,1c1.1,1.7.8,1.5.8,1.5v.5c.1,0,0,.4,0,.4l-.2.4-.3.2v.3c0,0,.4,0,.4,0l.6.2.6.2.4.5v.6c.1,0-.2.3-.2.3l-.6.3s-.2.3-.2.3,0,.3,0,.3l.3.4.2.5-.2.5-.4.2-.8.3h-1.1c0,.1,0,.8,0,.8l-.2.3h-.1s-.2,0-.2,0l-.3-.2-.6-.5h-.3s-.9,0-.9,0c0,0-.4,0-.4,0s-.4-.3-.4-.3l-.4-.2h-.1c0,.1.2.7.2.7v.4s-.7.3-.7.3l-.6.3v.3c-.1,0,0,.6,0,.6l.2.5v.6s-.1.4-.1.4l-.3.2v.3c0,0,.1.4.1.4v.5l-.2.5-.7-.2-.7-.3h-.6s0,.5,0,.5l.2.8-.4.7-1,.2h-1.3c0,.1.1.8.1.8v.6s-.2.3-.2.3l-.6.6c-.6,1-.5.9-.5.9.3.6,1,.9,1,.9l.2.2v.8c.1,0,.2.5.2.5l.3,1.1v.6c0,0,.2.3.2.3v.8s-.2.5-.2.5h-.3c0,0-.3-.1-.3-.1h-1.9s-.3,0-.3,0l-.2-.2-.5-.3-.4-.2-.5-.3h0c-.2,0-.3.1-.5.2,0,0-.2,0-.3,0v.2c0,0,.3.4.3.4v.4c.1,0,.2.7.2.7v.7c-.1,0-.4.4-.4.4l-.3.4h-1.1c0,0-.4.1-.4.1v.4c0,0,.1.7.1.7l.3.4.2.3v.6c0,0-.3.4-.3.4v.4c.1,0,.4.3.4.3h.6c0,0,.6.3.6.3l.4.2.2.6.3.7.2.6v.3c.1,0,0,1,0,1l-.3.6-.4.7v.4s.3.7.3.7v.7c0,0-.2.3-.3.3s-.4.1-.4.1l-.7.3-.6.7-.3.5v.8c0,0-.2.8-.2.8l-.6.4-.7.3c-.3.5-.2,1-.2,1,.4.7.9.4.9.4h.7s.7.2.7.2l.4.3.4.5.4.6.5.6.4.5v.5c.1,0,.3.8.3.8l.4.4.3.8.2.6.4.8.3.7.4.7.6.5.7.4.8.7.3.3v.8c0,0,.3,0,.3,0l.5-.3.6-.3.7-.2h.7s.7.2.7.2l.3.3.2.8.4.6.2.4-.2.3-.3.3-.4.2-.6.4c-.2.5.2.6.2.6h.7c0,.1.5,0,.5,0l.6-.3c.6-.3.9.1.9.1l.3.3.2.5v.4c.1,0,.3.5.3.5v.9c0,0,.3.1.3.1l.3.3.3.9v.4s.5.8.5.8l.4.3.7.7.8.6.3.3-.2.8v.4c0,0,.5.6.5.6v.5c0,0,0,.4,0,.4l-.4.4-.8.5h-.7c0,0-1.1.1-1.1.1h-.6l-.3.3v.3s.5.5.5.5l.9.6.7.5.8.7v.2s-.2.2-.2.2h-1.3s0,1.1,0,1.1c.2.8.8.9.8.9h.7s1.4,0,1.4,0h1.6c0,0,1.2.1,1.2.1l1.4.3,1,.3.8.3,1.3.6,1,.7.9.7.8.6.9.9.7.6,1.4,1.1,1.1.6.5.8.8.9.9,1,1.2,1.1,1.1.9.8.6,1.5,1.1.8.5.9.4.8.5.9.3,1.6.2c1-.3.8-.5.8-.5.5-.5.9-.4.9-.4.6,0,1,.3,1,.3l1.1.6s.8.6.8.7c0,0,.6.6.6.6l.4.6.3.3v.4c0,0-.3.4-.3.4v.5c-.1,0,0,.7,0,.7l.4.5h.3c0,.1.6.2.6.2l.5.2v.3s-.2.5-.2.5v.4c0,0,.6.3.6.3l.6.5.3.4v.5c0,0-.4.4-.4.4l-.5.3v.4s.2.7.2.7v.3c.1,0,.6.2.6.2l.6.2.5.5.9,1,.6.9.9,1.4.5.8.3.6.4,1,.5.2.4.3.3.3v1.2s.3.3.3.3l.6.3.4.6c.2.9-.3,1.6-.3,1.6l-.4,1.1-.8,1.7-.9,2.3-1,2.5-1.3,2.9v2s0,2,0,2v2.3s0,1.6,0,1.6v3.9s.3,0,.3,0h6s2.6,0,2.6,0v6.6c0,0-.1,1.5-.1,1.5v2.7c0,0,0,2.4,0,2.4v2.2s.7.2.7.2l.5.3.6.2.5.2.8.2.5.4.2.6.2,1v1.2c.1,0,.4.5.4.5h.4s.6-.3.6-.3l.5-.3h.4c0,0,.5.3.5.3l.5.4.5.6.5.5.5.7.4.5.6.9.3.5-.2.5-.3.4v.6c0,0,0,.6,0,.6v.3c.1,0,.6.3.6.3l.5.4v.7c.1,0,.2.9.2.9v.6c0,0,.4.4.4.4l.4.4.4.3.7.3.7.3.8.3h.1c0,0,.3-.3.3-.3h.5c0,0,.3.2.3.2h.6c0,.1.4,0,.4,0l.2-.4.2-.3.2-.5.4-.3.2-.3.4-.3h1.3c0,.1.5.2.5.2h1s.8.1.8.1h.3c0,.1.6,0,.6,0l.4-.4.3-.6.3-.9v-.6s0-.8,0-.8v-.9c0,0,0-.8,0-.8v-.6s-.2-.3-.2-.3l-.3-.6-.3-.7-.3-.6-.2-.6-.3-.7v-.7c0,0,.3-.6.3-.6l.2-.4.2-.3v-.3c0,0,.4,0,.4,0h1.4s.3,0,.3,0v.2l-.4.2-.6.2-.2.3.3.3.3.4.4.5.6.6.3.4.6.8.4.5,1,.5.4.2.9.2,1.1.4c.4,0,.8.8.8.8l.3.8.2.4h.5c0,.1.6,0,.6,0l1.1-.3h1.4l1.6.3h1l1.3.3v.6s-.4.6-.4.6l-.6.8-.4.4.4.6.5.7.3.5.3.3h.5s.6-.5.6-.5l1.2-.7,1.1-.9s1.2-.7,1.2-.8c0-.1,1.7-1.3,1.7-1.3l1.8-1.3.9-.5.4-.3,1.1-.3h.8c0,0,1,.3,1,.3l.7.2.7.6.6.7.3.6.2.4.4.5v1.5c0,0,0,.8,0,.8v1.1s0,.9,0,.9v.6c0,0,.9.9.9.9l.8.9.8.9.7.9.3.3.9,1.6.8.8.7.9.5.6.5.4.5.6.5.3.5.6.5.5.4.6.6,1.1.8.7.3.2.2-.2h.4c0-.1.1,0,.1,0v.3c.1,0,.3.4.3.4l.3.4.2.6.3.7.3.4v.6s.1,1.2.1,1.2v.6s.2.3.2.3c0,0,0,0,0,0,.7.2,1.3.7,1.9,1.3,3.2,3.4,7,6.3,4.4,11.2.2.5.4,1,.6,1.6h.4l.7.2.4.2v1.1c.1,0,.5.6.5.6l.7.8.3.6.4,1.3v.9s0,1,0,1l.2.9v1c0,0,.4,1.8.4,1.8l.3.6.5.8.5.6.8,1,.6.8.3.6.5.7.3.6.2.4.2.4v.5c.1,0,.1,1.2.1,1.2v.4c0,0,0,.6,0,.6l.2.6v.6s0,.7,0,.7l.2.6v.3c0,0,.2.3.2.3h.2c0,0,0-.5,0-.5v-.5c0,0,.2-.3.2-.3v-.3s.2,0,.2,0l.2.2.3.5.2.6v.7c.1,0,.3.6.3.6l.3,1,.4.6.3.3h.4c0,0,0-.8.5-.6s.4.5.4.5l.2.3.2.2h.4c0,0,.9.5.9.5l.8.6.4.3.7.4h.4c0,.1.5.2.5.2h.6c0,0,.2.3.2.3l.6.2h.8c0,.1,1.2,0,1.2,0h.8s1.3,0,1.3,0h1.3c0,0,1.3,0,1.3,0h1.2c0,0,.7.1.7.1h.6c0,.1.5.3.5.3l.3.2.4.6.4.5.5.5.6.7.5.3.4.4.6.4.6.3.6.2.7.3h.9c0,0,.6.1.6.1h.8c0,0,.8.4.8.4l.6.3.9.6s-.8-.3,0,.1c.8.5,1.9,1.9,1.9,1.9v.4c.1,0,.3.4.3.4l.2.4.2.4.2.3.6.3.5.2.5.2.4.4v.2c.1,0,0,.4,0,.4l-.3.2h-.3c0,.1-.6.1-.6.1l-.2.2h-.2c0,0-.4.1-.4.1l-.3.2v.3s.4.1.4.1l.5.2.8.6.7.8.2.4h.4c1.5.6,2.2,1.5,2.2,1.5l.6,1.1.8.5,1,.4.6.3.7.4.7.3.4.2.5.4.8.3,1,.4.8.3,1.4.6.6.3,1.4.5.8.2,1.2.4.9.3,1.1.3,1,.4.8.5.3.4.3.5.2.9v.5c.1,0,.4.7.4.7l.4.6.7.6.8.6,1.2.8,1.2.7.8.7.8.7h.3c0-.1.7-.5.7-.5l.9-.2h1.3c0,0,1.2,0,1.2,0h1c0-.1.5-.4.5-.4l.9-.4h.8l1,.4.6.2,1.1.2,1.1.3h.9c0,0,1-.4,1-.4h.8c0-.1.7.3.7.3l.5.8.6.7.4.9c.4.7,1.9.8,1.9.8h.8s1.2,0,1.2,0l.6.4.4.5.4.5.4.5,1,.4h0c0,.3,1,.3,1,.3h1.2l1.4-.3,1.7-.5,1.2-.8,1.2-.9.7-.6,1-.6.8-.2.7-.2,1-.9,1-1h.4c0-.1.3,0,.3,0h.4c0,0,.8-.9.8-.9l.7-.7.5-.2h1.4c0,.1,1,.2,1,.2l2.2.3,1.8-.4.9-1.1.3-1.3c.4-1.4.7-2.2.7-2.2.1-.6,1-1,1-1l1.2-.3h1c0,0,1.5.1,1.5.1l.3-.4.7-.3h1c0,0,1.3,0,1.3,0l.9-.3.5-.8.8-.9h1s.8-.3.8-.3l.4-.7,1-.4,1.5-.3,1.4-.4,1.7-.5,1.4-.4h.9c0,.1.9.7.9.7l1.5.2h2.8c0-.1,2.5,0,2.5,0,2.5.4,3,1,3,1l.5.7h.6c0,.1.4.8.4.8l.3,1.5h.5l.7.5v1.9c.1,0,.5.8.5.8l.6,1,.5,1,.9,1.6.6,1.5.6,1.3v1.1c.1,0,.2,1,.2,1v1.4c.1,0,0,1,0,1l-.2,1,.3,2.6.3,1.3.6.7.3,1.3.6,1,.9.9.7,1.1v.6c0,0-.2.9-.2.9v1c-.1,0-.2.9-.2.9l.2,1.1,1.2.6c1.8,1.4,1.6,4.2,1.6,4.2l.6.6,1,.8,1.9.6,2.2.2h2.2c0,0,3.1.4,3.1.4l.9.5.3.5-.2,1v.5h.3c0,.1.4,0,.4,0l.7-.4.6-.2.8-.2.8-.3s.5,0,.6,0,.5.2.5.2l.3.4.4.6.3.6.7.8.5.5.4.4h.6c0,.1.8,0,.9,0,0,0,1.1-.2,1.1-.2l.8-.4.8-.3.9-.4.6-.2.8-.2.7.2.4.4.3.3.6.3h.8s1.1-.4,1.1-.4l.8-.2h1.2c0,0,.8.3.8.3l1.3.3,1.1.2,1.2.3,1.2.3.9.3.8.2.8.6.8.5,1.1.9.7.6,1.6,1.1.8.2h.9s1,0,1,0l1.5-.3s1.4-.4,1.4-.5c0,0,1.3-.5,1.3-.5l1.4-.3h1.3l1,.2c1.5.5,1.5.8,1.5.8l1.1.8.7.3h1c0,.1.5,0,.5,0h.4c0,0,.9-.1.9-.1h3.3c0,.1.4.4.4.4l.5.6.6.5h.2c0,0,.5-.4.5-.4l.4-.2.8-.2h2.2s.8.3.8.3l.4.2.7.3.7.3.6.2.3-.2.3-.5.2-.5.5-.4.5-.3h.6l.4.3.4.5.5.6.3.2.8.2.6.2h.7c0,.1.7.1.7.1v-.2s-.6-.7-.6-.7l-.3-.6v-.6c-.1,0,.3-.8.3-.8,0,0,0-.2,1-.6,1-.4,2.7,0,2.7,0l.4.3.6.6.2.4.2.7v.4c0,0-.5.1-.5.1v.3c0,0,.3.3.3.3v.3c.1,0,.3.9.3.9.7.6,1.1.4,1.1.4h1c0,.1,1.3.1,1.3.1h.9c0,.1.4.3.4.3l1,.3.6.2,1.1.3,1.2.3.7.3.8.3,1.1.2,1.3.3.7.6.4.4.4.4,1.3.8.9.3.6.2h.8c0,.1.7.3.7.3.9-1.4,3.3-3,4.8-3.1,0,0-1.1.8-1.1.8h0c0,0,0,0,0,0,.2-.8,1-.9,1-.9h.8c0,0,1.3.1,1.3.1v-.3c0,0,.3-.8.3-.8l.3-1,.3-1.1v-2.2c0,0,.2-2.9.2-2.9v-2c.1,0,.2-2.5.2-2.5l.4-.4v-.3c.1,0,.3-.4.3-.4l.4-.4.3-.4.2-.3.3-.4h.5c0,0,.3.3.3.3h.6c0,0,.7-.4.7-.4l.5-.6v-.5c.1,0-.2-.8-.2-.8l-.2-.7v-.8c0,0,.5-.2.5-.2l.3-.2.2-.2v-.3s0-.3,0-.3l-.9-.6-.5-.8.3-.9.4-.6v-.6h0l.2-1.7.4-1.1.9-1-.2-2.4.4-.3.8-.3.5-.2c.3-.9,1.1-1.7,2.1-1.5.8.1,1.6.4,2.2.7.2-.2.4-.3.7-.3,0,0,0,0,.1,0,0-.2,0-.3,0-.4,0-1.2,1-2.2,2.2-2.2s.3,0,.4,0v-.8c.1,0,.1,0,.1,0,0-.4.1-.9.2-1.3.1-1.2.9-2.2,2.2-2.2s.9.2,1.3.5h0l.8-.9h1c0-.1,1,0,1,0h.9c.1-.2.3-.3.4-.5.7-1,1.9-1.5,3-.8.1,0,.2.2.3.2l.5-.3.6-.7h.5c0-.1,1,0,1,0l1.2.2,1,.2,1.4-.3h5.2c0-.1.8-.6.8-.6l.2-.4v-.3c-.1,0-.3-.7-.3-.7l.2-1.2v-1.3s-.2-.6-.2-.6l.4-.5h1.2v-.6s-.3-.6-.3-.6v-.5c.1,0,.3-1.4.3-1.4v-1.5c0,0,0-2.3,0-2.3l.5-.6,1.2-.3v-.5l-.5-1.5h-.1Z"></path>
  <g>
    <path class="cls-1" d="M156.3,282.1c0,1-.4,1.8-1.1,2.4-.6.7-1.4,1-2.2,1s-1.8-.3-2.3-1c-.5-.7-.8-1.5-.8-2.4v-70.5c0-1,.3-1.8.9-2.4.6-.7,1.4-1,2.3-1s1.5.3,2.2,1c.6.7,1,1.5,1,2.4v70.5h0Z"></path>
    <path class="cls-1" d="M180.3,285.7c-1,0-3.6-.4-4.3-1.1-.6-.7-1-1.4-1-2.3v-70.8c0-.9.3-1.7.9-2.3.6-.7,1.3-1,2.2-1h27.2c3.8,0,7.2.9,10.3,2.7,3,1.8,5.4,4.3,7.1,7.5,1.7,3.2,2.6,6.8,2.6,10.8s-.5,6.2-1.6,8.9-2.6,5-4.5,6.9c-1.9,1.9-4.1,3.3-6.5,4.3l-3.5-1.3c2.5.3,4.8,1.2,6.9,2.7s3.9,3.6,5.2,6.2c1.3,2.6,2,5.7,2.1,9.3,0,3.2.2,5.6.4,7.4.2,1.8.6,3.1,1.1,4,.5.9,1.1,1.6,1.8,2.1.7.4,1.1,1.1,1.4,1.9s.2,1.6-.3,2.3c-.3.6-.7,1-1.2,1.3-.5.3-1.1.4-1.6.4s-1-.1-1.5-.4c-1-.6-2-1.5-2.9-2.8-.9-1.3-1.7-3.1-2.4-5.5-.6-2.4-1-5.8-1-10.2s-.4-5.2-1.3-7c-.8-1.8-1.9-3.2-3.2-4.3-1.3-1-2.8-1.7-4.3-2.1-1.6-.4-3.1-.6-4.5-.6h-23.4l1.1-1.7v31.3c0,.9-.3,1.7-.8,2.3-.5.7-1.2,1-2.1,1h1.8ZM180.3,246.4h25.3c2.3-.2,4.4-1,6.4-2.4,2-1.4,3.6-3.4,4.9-5.9,1.3-2.5,1.9-5.5,1.9-8.8s-1.3-7.7-3.9-10.4-5.9-4.1-10.1-4.1h-24.1l.7-1.4v34.7l-1.1-1.6h0Z"></path>
    <path class="cls-1" d="M266.1,216.8l-24.5,66.7c-.3.7-.6,1.3-1.1,1.7-.5.4-1,.6-1.6.6-1,0-1.7-.3-2.2-.8-.5-.6-.7-1.2-.7-2,0-.4,0-.8.1-1.3l26.6-71.4c.3-.8.7-1.4,1.2-1.7.5-.3,1.1-.5,1.8-.5s1.4.2,1.9.6c.5.4.9.9,1.2,1.6l26.5,71.1c.1.4.2.9.2,1.3,0,1-.3,1.8-.9,2.4s-1.3.8-2.1.8-1.3-.2-1.8-.6c-.5-.4-.9-.9-1.2-1.6l-25.1-67.2,1.8.6h0ZM247.5,263.2l2.5-6.5h31.2l1.2,6.5h-34.9Z"></path>
    <path class="cls-1" d="M359,208.2c.9,0,1.6.3,2.1.9s.8,1.3.8,2.2v70.8c0,1.1-.3,2-1,2.6-.6.6-1.4.9-2.2.9s-.9,0-1.4-.3-.8-.5-1.1-.8l-44.9-66.3,1.7-1.1v65.6c0,.8-.3,1.5-.8,2.1s-1.2.9-2,.9-1.6-.3-2.1-.9-.8-1.3-.8-2.1v-71.1c0-1,.3-1.8.9-2.4s1.3-.9,2.1-.9.8,0,1.3.3c.5.2.8.5,1.1.9l44.4,65.7-1,2v-65.8c0-.9.3-1.6.8-2.2s1.2-.9,2-.9h0Z"></path>
  </g>
</svg></svg></g></svg>