<?xml version="1.0" encoding="UTF-8"?>
<svg id="Layer_1" data-name="Layer 1" xmlns="http://www.w3.org/2000/svg" version="1.1" viewBox="0 0 512 512">
  <defs>
    <style>
      .cls-1 {
        fill: none;
        stroke-width: 12.15px;
      }

      .cls-1, .cls-2 {
        stroke: #000;
        stroke-miterlimit: 10;
      }

      .cls-2 {
        fill: #000;
        stroke-width: 3.04px;
      }
    </style>
  </defs>
  <path class="cls-1" d="M496.85,415.56l-.85-1.1h-1.3l-1.05-.99-.63.65-.78.14-.43-.09-.58-.14-.45.11-1.37.67-.83.11-1.08.14-.27-.11-.4-.4-.33-.04-.54.43h-.61l-.29-.18-.92-.47-.33-.74,1.01-1.21-.05-.38-.63-1.21,1.08-1.79.33-1.08v-2.53l-.18-3.27-.14-2.86-.6-2.55-.96-4.3.02-2.22.34-3.7c-.31-.29-.54-.67-.65-1.08-.22-.06-.43-.15-.62-.27l-.35.12-.94.22h-2.37l-.51-.18-.69-.89-.29-.42-.25-.52-.31-.78-.31-.61-.4-.33-.85-.13-.52-.42-.34-.25-.45-.25-.51-.2-.63-.18-.58-.27h-.78l-.69-.16-1.01-.45-1.07-.42-.72-.25h-.99l-.43-.11-.61-.25-.67-.36-.9-.22-1.21-.18-1.07-.43-.56-.74-.69-1.08-.47-.38-.43-.27-.47-.25-.78-.78-.52-.78-.85-1.36-.81-.34-.94-.65-.54-1.05-.61-1.19-.81-1.59-.52-.94-.42-1.21-.27-.38h-.52l-.45-.27v-.47c.6-.8.52-.92.52-.92-.38-.61-.76-.58-.76-.58l-.02-.83-.31-.23-1.05-.09-.25-.42.09-1.07-.04-1.03c-1.74-1.68-1.46-1.64-1.46-1.64l.07-.63.16-.54-.04-.51-.13-.52-.11-1.1h-.8c-.51-.31-.65-.99-.65-.99l-1.37-1.39-1.74-1.7-1.9-2.46-1.95-2.55-2.15-2.64-1.25-1.81,2.28-2.75,3.45-4.21,4.37-5.31,4.08-4.97,3.9-4.61,4.05-5.1.04-.56.87-1.05.04-.69-.34-1.3.05-.72,1.03-1.03-.14-3.51-.69-.7v-.42l-.07-1.37-.18-.11-.45-.56-.18-3.16-1.74-1.83-2.95-.47-1.08-.14-1.17-.09-1.27-.18-.76-.14-1.27-.16-.63-.11-1.12-.16-.72-.18-.92-.09-1.14-.2-1.01-.2-1.05-.18-1.08-.13-1.52-.2-1.05-.18-1.08-.11-1.16-.27-.11-.85-.13-.94-.18-.81-.13-1.01-.13-.98-.25-1.14.02-.81-.04-1.68.04-2.19.02-2.13.14-1.64.02-.74-.12-.41-.05-.61.05-.33.2-.22.15-.23.18-.25.09-.43c.23-.02.26-.68.26-.68l.14-.51.16-.49.11-.41.1-.55.15-.44v-.53l-.15-.44-.16-.54-.18-.44-.05-.33-.14-.48-.23-.52-.11-.62v-.73s-.14-.1-.14-.1l-.14-1.12v-.85s-.14-.33-.14-.33l-.11-.7v-.99l-.07-.66-.42-.65-.32-.74-.3-.63-.28-.7-.43-.88-.52-1.13-.29-1.41-.27-1.27-.2-1.17-.25-1.01-.39-1.48-.2-.93-.27-1.24-.19-.71-.23-.78-.24-.71-.28-.84-.41-1.07-.36-1.14.39-.95.42-.88.4-.87.8-1.08.61-.65.97-1.05.85-.89.78-.88.7-.79.72-.45.32-.29v-.55s0-.42,0-.42v-.49s.14-.69.14-.69l.14-.2.25-.22.33-.04.23.07.46.08.3-.11.17-.23-.06-.14-.26-.21-.25-.22-.22-.09-.27-.05h-5.02l-.33-.24-.41-.17-.58-.34-.59-.29-.33-.23-.53-.23-.44-.28-.17-.46-.18-.53-.14-.81v-.78s-.05-.96-.05-.96l.05-.69.14-.42.18-.59.19-.56.15-.45-.12-.8-.13-.92-.22-1.03-.2-1.3-.25-.96-.22-1.46-.25-1.45-.02-1.05.51-1.21c.14-.2.29-1.17.29-1.17l.38-.54.83-.69.96-.85.8-.83.04-.85,1.79.04,1.21.04,2.8.11.04-1.07-.61-.36-.6-.51-.2-.4-.11-.49-.27-.58-.29-.51.02-.81-.04-.42-.13-.2-.4-.25-.52-.36-.74-.4c-.6-.49-.07-.52-.07-.52l.94-.38,1.21-.27,1.07-.14.38-.38.22-.52.14-.45.23-.56.36-.18.8.18.42-.18.33-.76.18-.54.04-.83.18-.72.47-.54.31-.8.4-.7.27-.49.09-1.28.13-1.28.13-1.08.09-.69.14-.74.43-.51.2-.47-.05-.63-.18-.47.11-.67.83-.98-.14-.47-.42-.83-.42-.63-.27-.72.23-.58.13-.4-.09-.42-.67-.89.13-.51.9-.43h1.16l.31-.2.05-1.9.23-.69.81-1.93.65-1.34.7-1.14s.02.51,0-1.08c0-.04,0-.07,0-.11-.02-1.48-.13-1.41-.13-1.41-.18-.87-1.17-1.9-1.17-1.9v-.85l.31-.6.33-.99-.05-.4-.04-.85.23-.74.09-1.1c-.34-1.93-1.07-2.84-1.07-2.84h-1.95l-.2-.18-.14-.4.42-.69.4-.63.31-.63.4-1.07.34-.51.18-.8.33-.72.11-.76v-.9l-.23-.87-.45-.92-.31-.72-.27-.78-.42-.47-.09-.58.13-.52-.16-.54-.16-1.01.25-.43.09-.72-.13-.6.29-.51.25-.45-.4-.31.11-.87.51-.89.18-.92c-.02-.78-.96-2.26-.96-2.26l-2.24.13-2.55.04h-2.33l-2.06.07-3.8-.02-3.98.04-3.02-.05-1.68-2.69-.98-1.64-.54-1.21-.8-.69-.8-.78-.51-.81-.92-1.66-.47-1.48c-.49-1.17-1.5-1.63-1.5-1.63l-.96-.23-2.06-.16c-1.72-1.16-1.88-1.97-1.88-1.97l-.69-.16-1.01.23-.9-.42-.49-.34-.51-.04-.61.18-.51.33-.52-.09-.65-.33-.54-.23-.36-.47-.25-.7-.25-.6-.7-.09-.36-.43v-.78l-.13-.36-.43-.47-.43-.58-.78-.63-.6-.6-.22-.56-.02-.6-.06-.07c-.16-.25-.25-.52-.26-.81-.02-.08-.01-.16-.02-.23-.06-.02-.12-.04-.17-.07l-.03-.02c-.14.03-.29.04-.45.05-1.27.02-2.33-.84-2.87-1.94-.06-.12-.11-.24-.15-.36-.62-.44-1.14-.98-1.56-1.63-.23-.35-.31-.74-.3-1.12l-.33-.21-.6-.61-1.16-.9c-1.28-.9-2.6-1.27-2.6-1.27l-.72-.05-.89-.2-1.05-.72-.67-.38-.47.04-.11,1.41-.38.23-.43-.18-.42-.04-.45.65-.7-.02-.47-.36-1.08-.67-.9-.63-.74-.23-.85.04c-.31.45-1.57,1.59-1.57,1.59l-1.45.07-1.23-.07-.92-.23-.9-.38-.98-.23-.83-.51-.11-.65-.14-.78-.22-1.01c-.07-.65-.78-.92-.78-.92l-1.28-.05-.6-.04-1.07-.33-.98-.42-.83-.47-1.05-.56-.9-.54-.65-.34-.52.02-.63.34-.58-.16-.25-.58-.49-.47-.16-.04-.85-.07-.4-.29-.47-.22-.52-.04-.63.07-.6-.18-.78-.25-.33-.09-.29-.09-.47.09-.49.42-.67.18-.54-.11-.52-.29-.69-.29-.72-.38-.61-.31-.6-.49-.13-.36-.09-.54v-.8l.09-.51v-.54l-.16-1.12-.2-.52c-.34-.72-1.3-1.17-1.3-1.17l-.14-.4-.14-1.3-.6-1.01c-.45-.72-1.3-1.21-1.3-1.21l-.99.02c-.6,1.17-.83,1.41-.83,1.41-.31.76-1.61,1.3-1.61,1.3h-1.52l-.29-.23-.27-.49-.33-.22-2.95-.09-.54-.2c-1.19-1.25-2.46-1.83-2.46-1.83l-.81.58-.58.18-.96.02-.47.49-.42.38-.27-.14c-.09-.34-.42-.61-.42-.61l-.52-.27-1.16-.05c.05-.13-1.41.14-1.41.14l-.83.14c-1.86,1.3-2.48,2.4-2.48,2.4l-.09.56.04.4.22.34v1.59l-.33.4-.34.18-.9.11h-.85l-.36.11-.38-.11-.33-.18-.4-.23-.58-.05-1.99.05-3.54.05-.56-.18-.61-.25-.72-.4-.51-.42-.78.04-.7.05-.67-.04-.65.33-.6.34-2.37.07-1.66.02-.67.31-.49.33-.33-.18-.51-.2-.36.18-.49.8-.67.52-.7.16-.65.34c-.89.11-1.01.89-1.01.89l-.92.04-.69.51-.63.69-.36-.02-.51-.05-.36.34-1.1.2c-1.84,1.5-3.34,3.92-3.34,3.92l-.8.11-.52.61-.54.54-.61.22-.43.04-.31.25-.38.6c-.51.61-1.17,2.6-1.17,2.6l.11,1.12s.34.58.25,1.57c-.09.99-1.21,2.46-1.21,2.46l-.69.18-.34.8-1.17.92h-.81s-.36-.89-1.43-.65c-1.07.23-1.9,1.14-1.9,1.14l-.4.04-.36.22-1.07,1.07-.81.72-.67.25h-1.17l-1.23.07-.83.8-.99-.04-.56-.11-.9-.04-1.39-.09-.4-.23-.99-.04-.81-.02-1.23-.05h-.94l-.05,1.01s.2.9.22.96c.02.05.16.69.16.69l.2.52.23.94.27,1.23.34,2.37.58,1.17.25,1.05.04,1.36.96,1.1-.11,2.44-.63,1.12-1.32,1.17-1.08.34c-1.83.31-2.11-.11-2.11-.11l-.58-.18-1.43-.2-1.57-.04-2.46.04-1.1.31-.74.16-1.16-.07c-1.16-.76-.56-1.39-.56-1.39l.89-.13,1.03-.04.83-.04-.18-.16-.33-.18-.07-.23.99-.09.42-.04,1.01-.04,1.61-.11,1.08-.16,2.89-.33,1.17-.14.98-.18,1.08-.34.56-.45.14-.49h-.83l-2.8.96-3.69.36-2.93.58-2.24.27-2.57.22-2.37.09-5.4,1.54-5.46,1.52-5.73,1.55-1.52.29-1.27-.02-.65.05-1.43.49-1.41.49-4.48,1.28c-4.48,1.28-4.9,1.28-4.9,1.28l-1.19.13h-2.02l-1.93-.11-1.07-.13-.87-.15-.36-.07s-.92.42-2.77-.83c-1.84-1.25-3.89-1.9-3.89-1.9l-.38-.11s-.8.05-.85,0-.67,0-.67,0h-.78l-.92-.18-1.12-.27-1.52-.34-.78-.25-.8-.22-.83-.27-.81-.25-1.01-.4-1.21-.56-1.25-.51-1.34-.7-.6-.31-1.12-.63-.7-.38-1.16-.8-.99-.6-.81-.67-.74-.69-.72-.65-1.03-.52-.96-.6-.87-.43-.94-.65-.61-.7-.4-.61-.6-.54-.89-.8-.63-.65-.6-.63-.47-.81-.49-.96-.4-1.03-.31-.9c-.27-1.45-.92-2.39-.92-2.39l-.45-.72c-.49-.81-2.11-.98-2.11-.98l-.65-.13h-.98l-.85-.54-.92-.78c-.52-.7-1.48-.8-1.48-.8l-1.3.8-2.22-.11h-.83l-.8-.31-.87-.22-.96-.16h-2.91l-.85-.13-1.03-.2-.9-.33-1.28-.47-.83-.34-1.08-.6-1.07-.6-.83-.43-.83-.54-1.92-1.41-1.01-1.01-.65-1.1s-.04-.2-.42-1.32c-.38-1.12-1.27-3.36-1.27-3.36l-.43-1.27v-2.84l-.09-.7-.25-1.07-.14-1.03v-3.58s-.02-.51-.16-1.21c-.14-.7-.81-3.27-.81-3.27l-.16-3.72s-1.43-.05-2.11-.04c-.69.02-.83.38-.83.38l-1.01.9-2.1-.07-.49-.54-.34-.85s-.2-1.01-.87-1.45c-.67-.43-1.16-.67-1.16-.67l-.31-1.28-.9-.22-.34-.63v-.76l-.29-.16-.8.2-.61.22-.63.16-.98-.23-.48-.75-.07-.58-.22-.31-.53-.29-.39-.39.05-.75-.07-.7-.24-.55-.48-.27-.36-.19h-.46l-.48-.12-.75-.19c-.51.14-1.01-1.04-1.01-1.04-.46-.1-1.61-1.83-1.61-1.83l-.14-.82v-1.2l1.06.05.14-.19.22-.53.6-.36.75-.24,1.35-.17,1.52-.1,1.54-.94.39-.75-.05-1.69-1.11-1.88-1.08-.17-.77-1.23c-.92-.84-1.64-1.74-1.93-2.34-.29-.6,1.33-2.39,2-2.87.67-.48.53-.29.53-.29l1.49-.12,1.71-1.06.1-.46-7.08-8.48c-.29.03-.58.01-.83-.06-.59-.16-.95-.53-1.3-1-.19-.25-.36-.51-.54-.76l-3.47,2.16-1.54-.05-1.59,1.83-1.08.12-.84,1.23-.7-.07-.8.46-.39.65-.53.55-.87.24-1.23.19-.82.07-.6.51-.89,1.13-.51.77-.39.55-.6.77-.63.65-1.18.7-.51.17-1.59.82-1.28.87-.77,1.2-1.13,1.45-1.54,1.3-1.52-.67-.67.24-.92,1.69-1.47.96-.24,1.16-1.3.67-.7.46-.29,1.11-.7.87s-1.16,1.59-1.88,1.61c-.72.02-.94-.02-.94-.02l-.65-.29-.72-.22-.55.24h-.99l-.72-.63-1.42.07-3.42,2.12h-1.71l-1.28-.99-.55-.07-.65.12-.8.02-.51-.41-.67-.02-.75.53h-.65s.17.05-1.66-1.49l-1.98-.14-.84-.75h-1.45l-.84-.72-3.35-.1-.75-.82-.14-.96v-.7l-1.16-.7-.17-.82-.87-1.37-.94-1.25-1.59-.27-1.76-.36-1.23-.92-.34-2.7-.75-.99-.58-1.28-1.35-.48-1.25-1.28-.14-1.66-.75-.92-.77-1.49v-1.45h-1.83l-.48-1.74h-1.16l-.48-1.64h-2.02l-1.06-2.22-.72.75-.67.61-.34.31-.51.43-.47.43-.34.31-.05.2.02.7v.49l-.07.69-.04.47-.23.43-.43.51-.29.33-.33.43.09.38.2.6.16.56-.11.47-.34.36-.27.29-.16.54.23.45.18.51-.18.4-.4.34-.6.23-.4.23-.58.14-.65.25-.22.04-.23-.05h-.33l-.27-.11-.16-.09-.31-.14-.2-.18-.27-.25-.14-.16-.13-.04-.23.07-.29.09-.36.2-.29.27-.36.14h-.36l-.31-.05-.25-.18-.18-.22-.16-.13-.4-.13-.23-.07-.27-.04-.11.09-.4.31-.2.6-.13.47.18.34.23.33.54.74.16.36.16.43.11.23-.07.29-.31.22s-.11.16-.13.22c-.02.05,0,.22,0,.22l.2.29.23.2v1.25l.16.38.27.27.72.07.58.11.25.2.22.38.47.87.2.36.18.87-.27.25-.33.36-.05.54.09.38.16.4.2.38-.11.23-.31.31-.29.2v.16l-.27.14v.22l.16.16.25.18.09.2.11.34-.11.23v.51l.11.27.22.18.2.22.18.43v.56l.2.56.61.36.52.23.42.25.2.29.04.49.02.54-.04.38-.38.05-.02.29.02.33.18.27.04.23-.07.33-.11.13-.25.27-.27.27v.27l-.02.38.13.27.22.22.07.34-.07.4-.11.43v.47l.2.18.4.02.23.05.43.18.04.16.05.72-.14.43-.18.29.11.33-.13.33-.04.89.11.22.04.51-.13.16-.16.27-.27.22.07.49.04.34.22.4.16.22.02.47-.14.51-.23.54.18.34.34.2.25-.07.58-.05.42.14.25.05.27.04.47-.2.33-.14.45-.04.52.29.42.38.31.27s.14.61.16.69c.02.07-.18.42-.18.42l-.31.4-.38.42-.4.18-.51.25-.51.18-.25.2v.33l.02.33.14.27-.02.42.04.42-.04.45-.07.31-.2.6-.2.36-.09.25-.42.22h-.2l.09.43-.2.45-.36.29-.31.11-.11.14-.2.6-.04.29-.18.69-.31.49-.25.31-.11.6-.18.45-.38.83-.54,1.28c-.25.45-.25.94-.25.94.27.83,1.07.61,1.07.61l.6-.09,1.46.04c1.48.85,1.61,1.88,1.61,1.88l.27.42.47.54.42.16.38.04.45-.14.51-.11.85.05.43.16.33.27.31.36.2.22.18.38.13.36.07.51-.11.31-.22.29-.23.25-.16.2-.31.33-.18.34v.31l.25.36.56.56.33.22.04.54v.22l-.31.2.04.49.2.29.13.23.11.38-.22.27-.23.2-.29.23-.16.25v.33l.09.8.14.51.13.43.3.25.64.14.2.14.11.27.23.36.14.38.43.18.47.05.51.29.14.13.09.45.04.43-.02.18.2.18.31.22.54.23.49.23.34.29.11.4.07.18-.27.45-.29.27-.31.25-.33.29-.07.31.05.47.16.42.05.27.07.49.02.81-.31.38-.23.29.04.34.22.4.23.13.09.22.02.36.18.2.27.25.29.43-.02.23.4.04.18-.22.52.11.49.34.47.18.18.25.14.52-.13.34-.2.34-.02.38-.02.56.38.52.13.54-.02.54-.18.49-.25.63-.14.2-.31.11-.25.34-.31.36-.25.49-.18.38.14.51.07.22.89.05,1.86.04.16.29.05.65.6.18.54-.04.56.25.45.4.22.6.13.63.11.69-.05,1.32-.23.34-.49.07-.14.16.11.69-.18.4-.31.25c-.22.63-.11,1.07-.11,1.07.72.76,1.34,1.05,1.34,1.05.58,1.12.92,2.19.92,2.19l.27.25.56.09.54-.16.49-.16.98-.4.56.09.45.43.47.7.31.67v.89l-.05.51.14.92.13.99.25.56.36.14.2.85-.09,1.5.29.89.69.85.27.36.13.54-.13.78-.23.87-.25.43.04.52.23.31.49.11.85-.14.92-.22,1.07-.14.83.11.63.2.61.29.74.42.56.43.42.56.65.56.43.6.42.74.34.54.25.45.22.43.23.4.34.07.29.07.23-.07.47-.22.33.05.51.2.47.05.25-.2.31-.36.2-.25.58-.05.56.25h.42l.56-.2.49-.2.9-.27.65-.09.81-.05.78.04.42.43.09.4.45.4.09.2.6.07.58-.07.42-.11s.49-.34.54-.38c.05-.04.78-.29.78-.29l.67.09.36.42.36.4.02.49-.38.58-1.54,1.43-.43.02-.92-.07-.51.31-.58.27h-2.42l-.4.07-.4.51-.29.38-.31.29-.05.52.02.4.29.4.11.4.13.47-.16.22h-1.05l-.05.13.14.33.22.27.2.25.04.78-.05.67-.07.7.18.51.25.49.36.52.31.54.45.47.36.65,1.03.99c1.07,1.7.76,1.48.76,1.48l.11.51-.14.42-.23.42-.25.23.05.34.31.05.56.18.54.23.4.45.11.56-.31.29-.58.27s-.23.29-.23.34.07.34.07.34l.33.42.22.47-.18.47-.42.23-.83.25-1.03.14.04.63-.18.34-.14-.02-.23-.05-.33-.18-.54-.49-.29-.02-.9-.02s-.38,0-.43-.02c-.05-.02-.42-.25-.42-.25l-.4-.18-.11.13.2.51-.04.4-.65.29-.58.29-.14.34.18.61.2.51.02.58-.13.38-.29.18-.07.33.18.42v.45l-.16.47-.65-.16-.7-.25-.6-.04.05.54.18.8-.36.7-.96.16-1.23.13.11.69.02.56-.23.29-.61.56c-.58.98-.45.92-.45.92.25.6.96.85.96.85l.23.18.11.83.09.49.27,1.1.09.63.14.31.02.83-.18.52-.29.09-.33-.22h-1.03l-.8-.02-.29-.07-.16-.22-.52-.33-.42-.2-.45-.29-.09-.04c-.15.09-.3.16-.46.22-.08.03-.18.04-.27.05l.05.21.29.38.14.4.05.67-.14.69-.23.36-.29.4h-.47l-.65.05-.36.09-.05.38.16.65.33.42.2.29-.05.56-.2.36.11.42.29.29.61.07.58.18.4.23.2.54.31.65.2.54.11.33-.05,1.01-.25.6-.36.67.04.38.23.65.05.72s-.29.25-.34.27c-.05.02-.43.13-.43.13l-.65.34-.54.72-.33.47-.09.8-.09.76-.56.42-.65.25c-.33.52-.23.98-.23.98.38.67.89.43.89.43l.65.02.67.22.4.25.42.51.42.61.51.61.38.45.14.51.13.76.36.42.27.78.23.56.4.78.27.67.4.65.63.47.7.42.81.67.33.34.07.8.27-.09.47-.27.54-.25.72-.18.7-.04.69.23.33.31.23.8.4.56.16.42-.23.33-.29.31-.36.22-.58.4c-.18.47.23.6.23.6l.69.13.52-.07.6-.27c.6-.33.9.14.9.14l.33.31.23.52.14.42.16.45.09.9.18.11.34.31.25.85.04.42.43.78.42.33.65.67.76.6.31.33-.16.78.07.42.43.6.09.51-.14.38-.4.4-.76.49-.72.09-1.03.02h-.54l-.27.25.04.31.49.45.89.63.65.49.83.69.04.16-.25.16-1.28-.02.04,1.12c.23.81.76.89.76.89l.72.04,1.36.02,1.54.07,1.16.04,1.39.33.94.34.8.31,1.27.61.96.65.92.7.78.61.85.85.72.56,1.34,1.1,1.07.58.45.81.74.9.92.98,1.16,1.07,1.05.89.83.6,1.48,1.05.83.49.92.42.83.45.85.29,1.55.22c.94-.25.74-.47.74-.47.45-.52.85-.42.85-.42.61-.02.98.29.98.29l1.03.54s.8.61.81.67c.02.05.63.54.63.54l.42.54.27.34-.05.42-.23.38-.14.45.11.67.36.45.31.13.58.07.51.18-.02.29-.2.49-.05.38.61.29.61.52.25.43-.05.47-.31.38-.45.27-.02.38.22.65.11.34.43.2.58.2.51.45.89.98.63.92.85,1.37.52.81.34.63.43.94.51.23.4.27.31.27-.04,1.16.36.34.61.33.42.54c.18.89-.29,1.55-.29,1.55l-.4,1.1-.74,1.64-.9,2.28-.98,2.46-1.27,2.86.04,1.97.02,1.93-.02,2.28.05,1.57v1.84l-.04,2.01.31.05h3.83l2.01-.04h2.55v3.14l-.05,3.36-.07,1.46-.07,2.64v2.33l.04,2.19.61.22.51.25.56.2.51.2.83.16.47.38.2.54.2.96v.74l.11.43.33.51.36-.04.56-.29.45-.29.36.09.47.23.45.42.45.63.49.45.47.72.36.47.54.9.27.47-.18.45-.25.36-.09.54.02.56.13.27.45.25.49.38.13.69.02.89.05.56.33.42.42.36.43.27.67.25.72.27.8.33.14.07.27-.36.45-.05.27.2.58.11.43-.14.22-.43.22-.34.16-.45.38-.31.23-.33.38-.29,1.23.11.47.13.98.02.8.11.25.11.63-.07.38-.38.29-.6.33-.92.04-.6.05-.81.05-.89-.02-.74.04-.58-.22-.33-.27-.58-.29-.65-.27-.58-.2-.6-.25-.65.05-.69.23-.6.2-.43.16-.34.09-.33.33-.05h.63l.74-.02.34.02v.23l-.38.18-.58.18-.23.33.31.27.27.42.42.51.54.56.34.36.56.74.4.47.98.52.42.16.9.2,1.05.36c.36.04.81.81.81.81l.34.81.18.42.51.13.61-.11,1.1-.25h1.37l1.55.27h.99l1.28.27-.04.6-.33.6-.6.74-.4.38.4.6.47.67.27.47.34.29.49-.04.6-.42,1.14-.69,1.03-.9s1.17-.67,1.21-.8c.04-.13,1.68-1.23,1.68-1.23l1.75-1.3.87-.47.43-.29,1.07-.27.81.09.98.2.7.22.65.58.61.67.29.58.16.42.4.47.05,1.48-.11.76-.04,1.05.07.92.09.61.76.92.83.89.74.87.72.9.31.31.9,1.52.76.83.67.85.51.56.45.4.51.56.45.31.49.61.51.52.4.58.56,1.05.8.65.31.18.2-.2.38-.13.14.18.13.29.18.36.31.42.18.6.31.72.29.42.04.61.09,1.16-.02.54.18.33s.03.06.05.09c.66.24,1.31.66,1.91,1.3,3.11,3.31,6.86,6.15,4.33,10.96.21.51.4,1.02.57,1.53h.36l.67.2.4.23v.61l.13.51.33.6.72.8.34.56.38,1.3.02.9.05,1.01.18.92.09.96.33,1.79.27.61.49.78.52.54.81.96.6.81.27.54.45.67.27.6.23.43.2.38.11.49v1.21l-.07.42.13.63.16.56.02.58.07.65.16.61.09.34.14.29.16-.07.04-.42.09-.45.07-.34.04-.33.2-.02.2.22.33.52.22.54.13.67.18.58.33.96.4.54.27.25.36-.09s.09-.74.45-.49c.36.25.36.49.36.49l.18.34.22.22.38.09.85.38.78.56.43.31.67.43.42.13.47.02.63.09.18.16.56.18.8.11,1.21-.14.8-.02h1.23l1.3.07h1.23l1.14.05.7.09.54.11.49.16.34.23.43.56.42.52.49.49.61.72.47.29.42.38.6.38.58.33.63.18.67.27.89.09.6.05.74.07.83.31.61.33.9.56s-.8-.33-.02.13c.78.45,1.83,1.9,1.83,1.9l.13.36.18.4.2.4.2.38.2.29.56.33.45.18.49.18.43.36.11.23-.04.42-.25.2-.33.13-.58-.02-.22.2-.23.09-.42.04-.25.22.04.34.36.13.51.16.78.61.72.74.16.38.43.11c1.43.47,2.17,1.37,2.17,1.37l.61,1.08.8.51.98.4.63.25.7.36.7.33.38.23.49.36.76.34.96.4.74.33,1.41.56.61.25,1.34.49.78.22,1.19.36.89.29,1.08.34.99.4.76.45.33.4.25.47.2.92.14.45.25.72.36.54.65.61.74.54,1.21.74,1.19.72.81.7.75.67.34-.14.67-.31.87-.17,1.28.05h1.2l1.01-.1.51-.31.84-.41h.77l.96.39.55.24,1.06.19,1.08.29.87-.07.99-.29.8-.14.67.43.51.8.55.67.39.89c.41.65,1.83.77,1.83.77l.77-.02,1.18-.02.6.39.36.48.41.53.43.46,1.01.43.07.14c.07.14.94.14.94.14h1.16l1.42-.34,1.64-.53,1.13-.75,1.2-.92.67-.55.94-.55.77-.19.67-.22.94-.84.99-1.01.43-.12.29.17.36-.07.77-.84.67-.72.53-.24,1.35.12,1.01.07,2.12.27,1.76-.43.84-1.06.31-1.25c.39-1.33.72-2.12.72-2.12.1-.58.94-.96.94-.96l1.13-.34.94.05,1.49.07.29-.43.7-.29.96.05,1.3-.1.84-.31.53-.77.77-.84.96.02.75-.36.41-.7.96-.41,1.49-.31,1.42-.39,1.69-.46,1.33-.43.89.1.89.55,1.45.17,2.77-.1,2.41.14c2.41.41,2.92.99,2.92.99l.48.72.63.14.36.67.27,1.47h.53l.67.53.14,1.88.36.77.6.94.46.99.89,1.61.55,1.49.55,1.25.12,1.08.1.99.1,1.33-.12,1.01-.19,1.01.29,2.58.27,1.23.58.7.27,1.3.55.94.89.92.65,1.11.05.58-.27.87-.14,1.01-.07.92.17,1.06,1.16.58c1.78,1.37,1.52,4.07,1.52,4.07l.58.63.96.8,1.86.55,2.19.22,2.17.07,3.05.3.89.51.29.52-.2.94v.49l.29.13.43-.09.65-.38.56-.23.81-.22.81-.27s.52-.02.58-.02.49.2.49.2l.29.38.43.6.33.61.69.81.51.52.36.36.56.11s.78-.05.87-.07c.09-.02,1.07-.23,1.07-.23l.8-.36.81-.31.89-.43.56-.23.78-.18.7.2.43.36.31.27.54.25.8-.02,1.12-.36.76-.16,1.19.07.78.22,1.23.25,1.1.2,1.16.25,1.21.25.9.25.74.2.78.58.74.52,1.12.87.72.56,1.57,1.07.81.22.87.02,1.01-.07,1.46-.27s1.34-.43,1.41-.49c.07-.05,1.3-.45,1.3-.45l1.41-.27h1.25l.99.18c1.5.52,1.48.81,1.48.81l1.12.74.72.25.94.13.51-.07.43-.07.9-.04h1.48l1.77.13.42.25.47.54.58.49.23-.09.49-.29.4-.23.78-.23h1.37l.78.02.78.27.43.23.65.25.65.34.61.18.33-.16.31-.49.22-.47.45-.36.45-.27h.61l.4.34.42.47.49.63.27.23.8.23.61.18.67.13h.7l-.04-.22-.58-.69-.33-.6-.14-.56.4-.83s.02-.2.99-.6c.98-.4,2.67-.05,2.67-.05l.43.27.56.6.23.38.2.65-.05.4-.43.11.07.25.25.31.11.33.18.87c.72.63,1.05.42,1.05.42l1.01.11,1.23.02.87.14.43.11,1.01.27.61.16,1.03.33,1.17.33.7.25.78.27,1.07.23,1.25.25.69.63.42.38.4.43,1.27.78.85.27.58.18.76.13.64.14c.85-1.38,2.21-2.07,3.63-2.2,0-.05.01-.09.01-.09v.09s.06,0,.08,0c.21-.82.95-.88.95-.88l.8-.05,1.3.18.07-.34.22-.81.33-.94.27-1.1.09-2.15.13-2.89.11-1.95.11-2.49.36-.36.11-.29.18-.42.43-.36.34-.43.23-.31.25-.36.45.07.29.2.54.09.67-.49.47-.61.11-.52-.27-.78-.2-.72.05-.81.4-.22.33-.22.23-.22.04-.29-.13-.27-.87-.6-.45-.78c.33-.89.51-1.01.51-1.01l.2-.47-.05-.54-.02-.8.25-.87.4-1.03.29-1.83.34-1.43.42-.27.83-.25.51-.15c.3-.86,1.12-1.63,2.05-1.51.81.1,1.54.35,2.19.7.2-.15.42-.27.64-.34.04-.01.08-.01.12-.02,0-.15-.01-.29-.01-.44,0-1.18,1-2.18,2.18-2.18.13,0,.25.02.37.04l.1-.83.02-.04c.06-.42.14-.84.18-1.26.11-1.18.91-2.18,2.18-2.18.46,0,.93.18,1.32.47l.06-.13.69-.74.96-.11.98.11h.85c.13-.17.26-.34.38-.51.71-.94,1.87-1.43,2.98-.78.12.07.23.15.33.24l.53-.31.56-.65.52-.13.94.05,1.16.22.94.2,1.37-.25h3.45l1.64-.11.81-.51.22-.42-.14-.33-.11-.65.2-1.16.04-1.3-.2-.6.38-.52h1.21l-.04-.6-.27-.56.13-.45.14-1.41.07-1.48v-2.26l.52-.61,1.19-.29v-.47l-.47-1.46Z"/>
  <text/>
  <g>
    <path class="cls-2" d="M159.17,279.78c-.07.94-.41,1.73-1.04,2.38-.63.65-1.33.97-2.12.97-.99,0-1.74-.33-2.27-.97-.53-.65-.79-1.44-.79-2.38v-69.11c0-.94.3-1.73.89-2.38.59-.65,1.35-.97,2.27-.97.79,0,1.49.32,2.12.97.62.65.94,1.45.94,2.38v69.11Z"/>
    <path class="cls-2" d="M180.96,283.13c-.99,0-1.79-.33-2.42-.97-.63-.65-.94-1.41-.94-2.28v-69.33c0-.87.28-1.62.84-2.27.56-.65,1.27-.97,2.12-.97h26.62c3.75,0,7.1.88,10.06,2.65,2.96,1.77,5.27,4.21,6.95,7.31,1.68,3.11,2.51,6.65,2.51,10.62,0,3.18-.53,6.08-1.58,8.72-1.05,2.64-2.53,4.87-4.44,6.72-1.91,1.84-4.04,3.23-6.41,4.17l-3.45-1.3c2.43.29,4.7,1.17,6.8,2.65,2.1,1.48,3.8,3.5,5.08,6.07,1.28,2.56,1.96,5.62,2.02,9.15.06,3.11.21,5.52.44,7.26.23,1.73.57,3.03,1.04,3.9.46.87,1.05,1.55,1.77,2.06.66.43,1.1,1.05,1.33,1.84.23.79.15,1.55-.25,2.27-.26.58-.66.99-1.18,1.25-.53.25-1.05.38-1.58.38s-1.02-.14-1.48-.43c-.99-.58-1.94-1.48-2.86-2.71-.92-1.23-1.69-3.03-2.32-5.42-.63-2.38-.94-5.7-.94-9.97,0-2.82-.41-5.11-1.23-6.88-.82-1.77-1.87-3.16-3.16-4.17-1.28-1.01-2.7-1.7-4.24-2.06-1.55-.36-3.01-.54-4.39-.54h-22.97l1.08-1.62v30.66c0,.87-.26,1.62-.79,2.28-.53.65-1.22.97-2.07.97ZM182.74,244.79h24.75c2.23-.22,4.32-1.01,6.26-2.38,1.94-1.37,3.53-3.3,4.78-5.8,1.25-2.49,1.87-5.36,1.87-8.61,0-4.12-1.27-7.53-3.8-10.24-2.53-2.71-5.83-4.06-9.91-4.06h-23.57l.69-1.41v34.01l-1.08-1.52Z"/>
    <path class="cls-2" d="M266.75,215.76l-23.96,65.32c-.26.72-.63,1.26-1.08,1.62-.46.36-.99.54-1.58.54-.99,0-1.71-.27-2.17-.81-.46-.54-.69-1.21-.69-2-.07-.36-.03-.79.1-1.3l26.03-69.98c.26-.79.64-1.35,1.13-1.68.49-.32,1.07-.49,1.73-.49.72,0,1.33.2,1.82.6.49.4.87.92,1.13,1.57l25.93,69.65c.13.43.2.87.2,1.3,0,1.01-.29,1.79-.89,2.33s-1.28.81-2.07.81c-.66,0-1.23-.2-1.73-.6-.49-.4-.87-.92-1.13-1.57l-24.55-65.86,1.78.54ZM248.5,261.25l2.46-6.39h30.57l1.18,6.39h-34.21Z"/>
    <path class="cls-2" d="M357.85,207.31c.85,0,1.53.29,2.02.87.49.58.74,1.3.74,2.17v69.33c0,1.08-.31,1.93-.94,2.55-.62.61-1.33.92-2.12.92-.46,0-.9-.09-1.33-.27-.43-.18-.77-.45-1.04-.81l-43.98-64.99,1.68-1.08v64.24c0,.8-.26,1.48-.79,2.06-.53.58-1.18.87-1.97.87-.86,0-1.53-.29-2.02-.87-.49-.58-.74-1.26-.74-2.06v-69.65c0-1.01.28-1.8.84-2.38.56-.58,1.23-.87,2.02-.87.39,0,.82.09,1.28.27.46.18.82.49,1.08.92l43.48,64.34-.99,1.95v-64.45c0-.87.26-1.59.79-2.17.53-.58,1.18-.87,1.97-.87Z"/>
  </g>
</svg>