<?xml version="1.0" standalone="no"?>
<!DOCTYPE svg PUBLIC "-//W3C//DTD SVG 20010904//EN"
 "http://www.w3.org/TR/2001/REC-SVG-20010904/DTD/svg10.dtd">
<svg version="1.0" xmlns="http://www.w3.org/2000/svg"
 width="700.000000pt" height="700.000000pt" viewBox="0 0 700.000000 700.000000"
 preserveAspectRatio="xMidYMid meet">
<metadata>
Created by potrace 1.14, written by Peter Selinger 2001-2017
</metadata>
<g transform="translate(0.000000,700.000000) scale(0.100000,-0.100000)"
fill="#000000" stroke="none">
<path d="M369 6551 c-36 -37 -69 -81 -73 -97 -10 -40 -26 -56 -48 -48 -30 9
-84 -34 -97 -76 -11 -37 -6 -62 25 -138 8 -18 14 -46 14 -63 0 -16 6 -42 14
-58 8 -15 18 -72 21 -127 4 -54 10 -114 15 -131 6 -24 3 -46 -11 -83 -34 -90
-21 -132 51 -168 35 -17 44 -35 55 -103 3 -20 16 -49 29 -63 13 -15 23 -40 24
-55 1 -38 19 -136 36 -191 9 -32 19 -46 34 -48 16 -2 20 -10 20 -33 -1 -16 6
-37 14 -47 8 -9 18 -25 21 -35 4 -10 20 -25 36 -35 26 -14 31 -25 37 -72 11
-91 36 -120 106 -120 19 0 32 -9 45 -30 10 -17 28 -33 40 -36 16 -4 23 -16 28
-47 4 -23 13 -53 20 -67 12 -23 10 -28 -20 -62 -19 -23 -41 -38 -54 -38 -17 0
-21 -4 -16 -19 4 -13 0 -20 -16 -24 -18 -5 -21 -11 -15 -37 8 -44 -8 -70 -44
-70 -26 0 -29 -3 -28 -32 0 -18 -1 -56 -2 -85 -1 -30 4 -65 13 -81 13 -26 12
-31 -6 -56 -11 -15 -20 -45 -21 -66 0 -34 5 -45 42 -80 23 -22 42 -46 42 -53
0 -7 9 -23 20 -34 10 -12 20 -38 22 -58 2 -33 4 -36 27 -32 32 6 88 -30 72
-46 -34 -34 18 -168 72 -186 16 -6 44 -11 61 -11 39 0 80 -25 131 -79 50 -53
134 -109 175 -117 27 -6 44 -18 45 -34 2 -23 42 -89 55 -93 9 -2 26 -23 37
-46 l21 -43 -24 -54 c-21 -48 -24 -71 -26 -182 l-1 -127 59 -10 59 -10 1 -80
c2 -107 1 -102 28 -109 13 -3 34 -22 46 -41 12 -19 27 -35 33 -35 7 -1 23 -24
37 -53 22 -45 33 -56 85 -80 46 -22 63 -26 75 -18 23 17 56 30 85 34 14 2 39
16 55 31 35 33 61 29 98 -15 32 -39 76 -39 130 1 48 35 52 36 52 14 0 -9 16
-35 35 -58 43 -49 49 -56 103 -122 23 -29 42 -59 42 -67 0 -8 12 -25 26 -38
65 -60 66 -60 59 -86 -7 -30 20 -119 39 -126 7 -3 16 -25 20 -49 4 -23 18 -60
32 -81 14 -22 28 -55 31 -75 7 -42 51 -137 60 -128 4 3 17 -1 30 -9 13 -9 23
-13 23 -11 0 3 17 -2 37 -11 21 -8 64 -17 95 -19 40 -2 68 -10 90 -25 17 -12
47 -28 67 -35 32 -11 36 -16 39 -52 2 -30 8 -42 28 -50 13 -7 24 -16 24 -22 0
-5 6 -10 14 -10 7 0 19 -6 25 -14 13 -16 138 -78 192 -95 20 -6 41 -22 48 -34
7 -12 38 -41 69 -65 44 -33 63 -42 82 -37 83 20 111 16 199 -26 119 -57 153
-56 266 9 17 10 41 24 55 32 14 7 45 15 70 16 37 3 50 9 77 39 17 20 37 38 45
39 7 2 26 8 41 14 16 7 33 12 38 12 5 0 9 4 9 9 0 5 19 16 43 25 34 12 78 15
140 7 4 -1 7 -12 7 -26 0 -14 6 -25 13 -25 21 0 46 -69 46 -128 1 -31 9 -73
21 -99 11 -25 20 -60 20 -78 0 -18 9 -44 20 -58 11 -14 20 -29 20 -34 0 -14
54 -60 78 -67 11 -4 31 -9 43 -11 13 -3 42 -14 66 -25 23 -11 53 -20 65 -20
13 0 32 -7 42 -15 21 -16 93 -20 113 -7 7 4 44 5 83 1 53 -4 79 -13 109 -33
47 -33 105 -43 154 -27 30 10 41 9 67 -4 17 -9 44 -14 60 -11 20 3 34 -2 46
-15 15 -16 20 -17 49 -5 20 9 37 10 48 4 9 -5 45 -11 79 -13 113 -7 217 -31
259 -59 14 -8 49 -21 79 -29 52 -14 55 -13 72 8 13 17 27 22 58 21 47 -2 47
-2 55 44 3 18 8 37 11 42 3 5 8 37 11 71 3 44 9 66 22 77 33 27 50 73 47 132
-2 40 1 55 9 52 7 -3 18 2 25 11 7 8 22 15 35 15 12 0 25 3 29 8 4 4 13 7 19
7 7 1 11 6 9 13 -1 7 3 12 8 12 6 0 15 11 20 25 6 17 17 25 33 25 13 0 28 5
34 11 10 10 57 16 145 18 17 1 42 16 70 43 41 39 43 44 39 91 -2 31 1 52 9 57
17 10 19 79 3 123 -12 35 -47 76 -66 77 -4 0 -21 10 -38 22 -26 19 -31 20 -39
8 -7 -11 -10 1 -11 38 -1 28 -2 55 -3 60 -9 35 -19 124 -17 155 3 68 -28 110
-90 121 -8 1 -30 12 -49 24 -19 12 -68 32 -109 44 -81 24 -142 72 -172 138 -9
19 -28 60 -43 90 -14 30 -26 72 -26 93 0 32 -3 37 -22 37 -13 0 -28 4 -33 8
-18 13 -75 83 -75 92 0 5 63 86 140 180 77 94 140 174 141 178 0 4 3 16 6 27
21 82 -3 212 -48 264 -26 30 -42 37 -99 45 -88 12 -126 18 -145 21 -11 2 -26
4 -32 4 -17 1 -17 109 -1 163 14 46 -4 176 -32 236 -9 21 -25 72 -34 115 l-18
79 46 44 c25 23 46 46 46 50 0 4 7 15 16 25 34 38 -25 129 -83 129 -28 0 -29
3 -40 67 -7 37 -9 71 -6 76 3 4 24 8 47 7 80 -3 76 -7 76 68 0 50 7 85 26 133
14 35 28 79 30 96 3 18 10 45 16 60 6 16 12 46 14 68 3 58 11 95 25 111 22 27
14 299 -11 365 -15 41 -15 49 -3 73 8 16 11 35 7 44 -4 9 -9 25 -11 35 -5 27
-31 75 -45 83 -7 5 -71 7 -143 6 l-130 -3 -20 33 c-11 18 -28 46 -38 63 -19
31 -66 75 -80 75 -5 0 -15 6 -22 14 -8 7 -32 16 -53 20 -43 6 -92 52 -92 85 0
10 -13 22 -35 30 -19 7 -35 18 -35 24 0 17 -62 64 -117 89 -39 17 -64 21 -134
19 -66 -2 -88 1 -98 13 -7 8 -29 20 -49 27 -20 6 -60 22 -89 35 -28 13 -62 24
-75 24 -32 0 -42 9 -66 55 -24 47 -68 94 -91 97 -52 4 -78 2 -92 -10 -14 -11
-23 -10 -57 8 -32 17 -45 19 -61 11 -11 -6 -40 -11 -65 -11 -39 0 -51 -5 -88
-41 -35 -33 -48 -39 -68 -34 -49 13 -100 17 -118 10 -9 -4 -33 -7 -52 -6 -21
1 -49 -7 -70 -21 -19 -12 -51 -30 -70 -39 -34 -16 -101 -70 -147 -118 -13 -13
-28 -41 -34 -61 -17 -57 -77 -83 -204 -90 l-100 -5 -3 -46 c-1 -25 2 -66 7
-90 7 -30 7 -46 -1 -50 -6 -4 -42 -10 -82 -14 -39 -3 -117 -20 -174 -36 -56
-17 -120 -32 -142 -34 -23 -2 -46 -7 -51 -11 -25 -15 -149 -41 -179 -38 -17 2
-51 12 -75 23 -24 11 -61 21 -82 22 -106 8 -302 137 -318 210 -7 29 -58 89
-76 89 -6 0 -29 8 -52 19 -28 12 -68 18 -118 19 -83 1 -122 12 -156 44 -19 18
-40 71 -35 90 1 4 -3 44 -9 90 -6 46 -12 104 -13 130 -2 27 -6 51 -10 55 -3 4
-32 8 -63 8 -47 1 -58 5 -64 22 -4 11 -23 27 -43 37 -35 16 -56 36 -38 36 27
0 42 102 21 142 -8 15 -8 22 1 28 6 4 16 26 21 49 l9 42 -72 89 c-40 49 -77
89 -81 89 -4 1 -18 12 -30 26 l-22 26 -38 -26 c-21 -15 -50 -28 -64 -29 -13
-2 -28 -7 -31 -12 -10 -13 -86 -64 -97 -64 -4 0 -32 -21 -61 -47 -67 -61 -109
-93 -123 -93 -6 0 -35 -24 -65 -52 -46 -46 -60 -53 -97 -55 -23 -2 -47 -7 -51
-11 -12 -12 -80 2 -141 26 -16 7 -32 12 -37 12 -5 0 -25 20 -44 46 -19 25 -37
45 -40 45 -20 -2 -25 2 -39 32 -9 18 -25 41 -37 52 -14 13 -20 30 -20 62 0 36
-3 43 -19 43 -10 0 -29 11 -42 24 -13 13 -28 22 -34 20 -6 -3 -21 16 -34 41
-12 25 -25 45 -29 44 -4 0 -37 -31 -73 -68z m1201 -223 c0 -7 -7 -22 -15 -32
-17 -23 -19 -69 -4 -97 9 -17 7 -19 -15 -15 -18 3 -27 -1 -31 -14 -11 -33 -2
-119 14 -144 26 -39 130 -146 142 -146 6 0 29 -18 50 -40 22 -22 52 -43 67
-46 26 -5 27 -8 29 -77 4 -100 35 -182 87 -231 52 -49 133 -87 199 -93 29 -2
68 -6 88 -8 51 -4 76 -20 98 -63 25 -49 89 -108 176 -164 98 -63 171 -91 265
-103 8 -1 35 -11 60 -22 66 -30 160 -30 273 0 328 88 321 87 362 73 21 -8 49
-10 64 -7 14 4 43 4 64 0 98 -18 177 43 177 136 0 44 24 105 42 105 7 0 31 9
52 21 21 11 45 18 53 15 25 -10 102 78 109 124 4 25 13 41 24 45 9 3 22 17 28
30 7 14 20 25 31 25 11 0 23 5 26 10 3 6 15 10 26 10 12 0 28 9 37 20 18 21
55 25 162 15 108 -10 137 -5 170 32 14 16 33 27 42 25 9 -2 19 1 22 7 4 6 21
5 48 -5 22 -7 53 -14 68 -14 22 0 29 -6 36 -32 7 -26 21 -39 64 -61 30 -15 64
-26 74 -23 11 3 25 1 30 -3 6 -5 37 -16 69 -26 32 -10 57 -24 57 -31 0 -8 19
-23 43 -36 36 -18 59 -22 159 -22 112 -1 118 -2 130 -24 7 -13 24 -34 38 -46
14 -12 44 -47 68 -78 34 -46 50 -59 85 -69 23 -6 53 -16 67 -22 14 -6 29 -11
34 -11 5 -1 37 -42 70 -92 l61 -91 112 1 c122 1 122 1 123 -62 0 -12 5 -31 12
-41 9 -15 7 -25 -10 -53 -19 -31 -20 -40 -10 -69 6 -19 16 -37 21 -41 11 -7
17 -98 10 -135 -3 -13 -11 -23 -19 -23 -20 0 -39 -74 -28 -113 15 -52 -6 -134
-41 -164 -61 -49 -75 -66 -75 -83 0 -10 -4 -20 -9 -22 -6 -1 -11 -15 -13 -30
-2 -15 -11 -35 -20 -45 -22 -25 -39 -83 -33 -113 3 -14 7 -65 9 -115 2 -91 13
-127 43 -144 15 -8 15 -11 1 -32 -32 -50 -40 -94 -24 -135 8 -22 20 -64 26
-94 6 -30 20 -77 31 -105 20 -53 23 -95 17 -245 -2 -52 0 -127 5 -167 l9 -71
46 -11 c26 -5 67 -13 92 -16 116 -16 163 -25 169 -31 13 -13 8 -101 -6 -123
-15 -23 -240 -300 -253 -311 -23 -20 -61 -82 -57 -93 7 -18 103 -145 142 -187
28 -30 48 -74 42 -90 -1 -3 6 -16 16 -30 9 -13 17 -37 17 -52 0 -16 3 -27 8
-27 21 4 31 -4 43 -33 21 -51 138 -164 179 -173 76 -16 126 -39 157 -71 17
-19 36 -34 41 -34 9 0 31 -103 37 -170 1 -19 -3 -44 -10 -55 -24 -40 -26 -74
-6 -113 23 -45 65 -71 109 -68 41 3 50 -9 26 -35 -11 -12 -26 -17 -41 -15 -23
5 -151 -24 -206 -46 -15 -6 -35 -24 -45 -40 -9 -16 -37 -39 -62 -51 -25 -11
-49 -23 -53 -25 -5 -2 -8 31 -7 74 1 44 1 108 0 144 -2 62 -3 63 -11 25 -4
-22 -11 -51 -14 -65 -6 -25 -21 -101 -31 -150 -14 -68 -67 -313 -80 -372 -14
-57 -18 -66 -32 -58 -10 5 -43 16 -75 25 -40 11 -67 26 -87 48 -25 28 -34 32
-77 31 -26 -1 -68 -6 -93 -12 -50 -12 -208 -5 -227 10 -17 14 -101 17 -132 5
-23 -8 -33 -6 -67 16 -21 14 -52 29 -69 32 -86 16 -178 25 -194 20 -11 -3 -34
1 -52 9 -58 25 -136 45 -163 42 -20 -3 -29 3 -41 27 -8 17 -15 39 -15 50 0 11
-10 35 -22 55 -15 24 -22 54 -24 97 -1 43 -10 80 -28 117 -14 30 -26 60 -26
66 0 31 -57 90 -100 105 -81 28 -187 30 -266 6 -38 -11 -76 -27 -84 -34 -8 -7
-32 -16 -53 -19 -49 -8 -70 -19 -96 -52 -13 -16 -33 -28 -50 -29 -15 -1 -61
-24 -101 -50 l-72 -47 -37 18 c-20 11 -49 29 -66 40 -26 19 -43 21 -128 20
-53 -1 -101 0 -105 3 -4 4 -14 19 -22 34 -13 27 -74 67 -100 67 -6 0 -44 15
-84 34 -57 26 -75 39 -80 60 -3 14 -26 47 -49 72 l-44 46 -21 -33 c-24 -38
-30 -28 -7 11 8 14 14 28 15 31 0 8 -47 29 -66 29 -9 0 -33 15 -55 33 -36 31
-45 34 -112 36 -88 2 -115 19 -139 87 -10 27 -27 61 -38 77 -12 15 -23 47 -26
70 -3 23 -9 46 -15 52 -5 5 -9 17 -9 27 0 10 -4 26 -9 36 -5 9 -14 35 -20 58
-6 23 -28 61 -48 85 -21 24 -49 66 -62 92 -14 27 -40 60 -58 74 -54 41 -97
102 -98 139 -2 35 -42 97 -76 115 -30 16 -106 13 -134 -5 -28 -18 -99 -13
-152 10 -26 12 -31 20 -31 44 1 17 -2 33 -5 36 -8 8 -152 8 -165 0 -12 -7 -37
-96 -33 -116 1 -8 -9 1 -24 20 -14 19 -44 52 -66 73 l-40 38 2 102 c2 135 3
129 -28 127 -16 -1 -42 -2 -60 -1 -29 1 -31 3 -28 34 1 17 13 57 25 87 12 30
26 67 30 82 11 38 -6 98 -37 127 -31 30 -77 126 -69 146 3 8 1 15 -3 15 -5 0
-29 19 -53 43 -50 50 -82 66 -122 60 -23 -3 -36 4 -70 39 -49 50 -139 119
-179 136 -25 11 -33 30 -28 70 1 7 -11 28 -28 47 -16 18 -32 44 -36 56 -14 44
-86 119 -115 119 -15 0 -25 10 -36 35 -8 20 -12 41 -8 47 4 5 7 38 8 71 1 50
5 62 18 65 12 2 21 21 30 63 6 32 15 59 18 59 4 0 13 18 20 39 8 25 17 38 26
34 16 -6 74 51 92 90 18 42 15 68 -18 133 -35 69 -34 64 -16 64 8 0 30 16 50
36 48 48 51 103 7 145 -31 30 -106 45 -174 36 -28 -4 -40 0 -54 16 -10 11 -32
26 -50 33 -26 11 -33 21 -39 56 -4 24 -8 45 -9 48 -4 19 -38 71 -54 82 -11 8
-21 28 -24 47 -3 18 -18 50 -32 71 -15 21 -24 43 -21 49 4 6 -1 27 -10 48 -10
21 -18 47 -19 58 -1 11 -2 29 -3 41 -1 11 -16 34 -33 52 -24 25 -31 41 -34 79
-1 27 -3 55 -4 64 -2 23 -34 57 -68 71 l-30 13 33 70 c38 79 38 116 -1 151
-19 18 -25 36 -31 95 -3 41 -13 86 -21 102 -7 15 -12 27 -10 27 2 0 71 -20
153 -45 82 -25 158 -48 169 -50 11 -3 50 -14 88 -26 68 -21 149 -26 267 -15
30 3 60 5 67 5 6 1 32 21 56 46 25 25 49 45 54 45 4 0 34 24 66 53 99 90 134
117 167 128 17 7 43 22 57 35 28 26 53 31 53 12z m-1079 -66 c16 -18 29 -40
29 -49 0 -9 6 -24 14 -32 13 -15 7 -16 -67 -15 -45 1 -85 2 -88 3 -4 1 -9 15
-11 32 -4 25 0 33 23 45 16 8 36 29 45 47 12 22 19 27 22 17 3 -8 18 -30 33
-48z"/>
<path d="M2091 4166 c-21 -22 -21 -29 -21 -517 0 -431 2 -497 16 -517 21 -30
67 -29 92 2 18 24 19 46 18 520 -1 448 -3 497 -18 512 -25 25 -63 25 -87 0z"/>
<path d="M2452 4182 c-12 -2 -27 -13 -33 -25 -8 -15 -11 -167 -11 -524 l1
-503 -22 -1 c-32 -1 -70 -9 -76 -15 -11 -12 225 5 284 19 l60 15 -61 1 -61 1
1 200 0 200 151 0 c257 0 275 -14 289 -236 9 -149 102 -250 166 -182 24 26 20
60 -10 93 -24 26 -30 49 -35 131 -9 131 -23 173 -77 230 l-29 31 42 42 c64 66
83 119 83 226 1 78 -3 97 -26 142 -38 74 -101 128 -174 148 -29 8 -419 14
-462 7z m455 -145 c82 -44 108 -161 59 -261 -44 -91 -67 -100 -263 -101 -90
-1 -164 1 -164 4 -3 13 -6 366 -3 372 2 3 79 5 171 5 138 -1 174 -5 200 -19z"/>
<path d="M3596 4169 c-8 -12 -38 -85 -66 -163 -28 -78 -56 -150 -61 -161 -15
-34 -231 -618 -241 -653 -7 -26 -6 -39 7 -58 19 -29 64 -32 87 -6 9 9 37 77
64 150 l48 132 204 -2 205 -3 29 -80 c51 -137 79 -199 91 -207 25 -16 66 -8
82 16 19 28 16 45 -23 151 -17 44 -67 179 -111 300 -45 121 -86 229 -91 240
-5 11 -34 90 -66 175 -31 85 -63 163 -72 173 -21 24 -67 22 -86 -4z m123 -428
c40 -108 68 -197 62 -200 -10 -7 -296 -7 -296 0 1 7 56 163 65 184 5 11 26 66
46 123 21 56 40 99 44 95 4 -4 40 -95 79 -202z"/>
<path d="M4207 4169 l-27 -20 0 -498 c0 -547 -1 -541 59 -541 56 0 56 0 61
423 l5 389 107 -158 c159 -238 408 -605 427 -631 22 -31 74 -31 95 -1 14 20
16 86 16 520 0 489 0 498 -21 519 -14 14 -27 18 -42 13 -53 -15 -52 -5 -53
-420 -1 -211 -3 -387 -6 -389 -2 -3 -79 107 -171 243 -218 324 -368 545 -376
553 -18 19 -50 18 -74 -2z"/>
</g>
</svg>
